# Blender 5.2.2 LTS
# www.blender.org
mtllib 中間.mtl
o 中間
v -1.009765 0.129310 0.071425
v -1.019195 0.128295 0.079149
v -1.011073 0.131226 0.079491
v -1.018226 0.126220 0.071425
v -1.009765 0.129310 -0.041653
v -0.984438 0.150118 0.079501
v -0.982900 0.148335 0.071425
v -0.945316 0.177820 0.079501
v -0.944853 0.175278 0.071425
v -0.982900 0.148335 -0.041653
v -0.944853 0.175278 -0.041653
v -0.945316 0.177820 -0.049730
v -0.919475 0.191673 -0.041653
v -0.984438 0.150118 -0.049730
v -0.988641 0.154988 -0.055642
v -1.011230 0.131455 -0.049583
v -1.014790 0.136671 -0.055411
v -1.021735 0.132104 -0.053616
v -1.019632 0.143764 -0.057806
v -1.019116 0.128267 -0.049334
v -1.018241 0.126506 -0.041653
v -1.025527 0.129437 -0.049332
v -1.026969 0.128104 -0.041653
v -1.033956 0.133739 -0.041653
v -1.031821 0.135213 -0.049582
v -1.026653 0.138830 -0.055410
v -1.032642 0.147339 -0.055648
v -1.037880 0.143630 -0.049719
v -1.040773 0.151892 -0.049378
v -1.039786 0.142280 -0.041653
v -1.042834 0.150888 -0.041653
v -1.039786 0.142280 0.071425
v -1.033956 0.133739 0.071425
v -1.042834 0.150888 0.071425
v -1.041238 0.159932 0.071425
v -1.040773 0.151892 0.079149
v -1.037085 0.154503 0.083324
v -1.039649 0.158259 0.079149
v -1.037880 0.143630 0.079491
v -1.032642 0.147339 0.085420
v -1.026775 0.138743 0.085420
v -1.032032 0.135064 0.079491
v -1.025446 0.129439 0.079149
v -1.027105 0.127846 0.071425
v -1.021744 0.132030 0.083324
v -1.014695 0.136532 0.085420
v -1.019632 0.143764 0.087578
v -1.025517 0.152385 0.087578
v -0.994382 0.161640 0.087578
v -0.988641 0.154988 0.085414
v -0.948310 0.194253 0.087578
v -1.001234 0.169581 0.087578
v -1.007008 0.176272 0.085414
v -0.945282 0.219985 0.085414
v -0.936709 0.215276 0.087578
v -0.939963 0.429460 0.085414
v -0.931322 0.427435 0.087578
v -0.919475 0.212871 0.087578
v -0.919499 0.249581 0.087578
v -0.919475 0.453989 0.087578
v -0.907629 0.427435 0.087578
v -0.902242 0.215276 0.087578
v -0.919475 0.475385 0.085414
v -0.919475 0.491048 0.079501
v -0.898988 0.429460 0.085414
v -0.892662 0.430943 0.079501
v -0.893669 0.219985 0.085414
v -0.831942 0.176272 0.085414
v -0.837716 0.169581 0.087578
v -0.887393 0.223432 0.079501
v -0.885096 0.224694 0.071425
v -0.890346 0.431485 0.071425
v -0.827715 0.181170 0.079501
v -0.808480 0.159643 0.085420
v -0.826168 0.182963 0.071425
v -0.804838 0.164978 0.079491
v -0.799302 0.158259 0.079149
v -0.803513 0.166920 0.071425
v -0.797713 0.159932 0.071425
v -0.797713 0.159932 -0.041653
v -0.803513 0.166920 -0.041653
v -0.826168 0.182963 -0.041653
v -0.827715 0.181170 -0.049730
v -0.887393 0.223432 -0.049730
v -0.885096 0.224694 -0.041653
v -0.892662 0.430943 -0.049730
v -0.890346 0.431485 -0.041653
v -0.919475 0.496781 0.071425
v -0.919475 0.496781 -0.041653
v -0.919475 0.491048 -0.049730
v -0.948604 0.431485 -0.041653
v -0.946289 0.430943 -0.049730
v -0.919475 0.475385 -0.055642
v -0.939963 0.429460 -0.055642
v -0.919475 0.453989 -0.057806
v -0.898988 0.429460 -0.055642
v -0.907629 0.427435 -0.057806
v -0.893669 0.219985 -0.055642
v -0.902242 0.215276 -0.057806
v -0.831942 0.176272 -0.055642
v -0.804838 0.164978 -0.049719
v -0.808480 0.159643 -0.055648
v -0.837716 0.169581 -0.057806
v -0.844569 0.161640 -0.057806
v -0.813434 0.152385 -0.057806
v -0.819319 0.143764 -0.057806
v -0.817215 0.132104 -0.053616
v -0.812298 0.138830 -0.055410
v -0.824161 0.136671 -0.055411
v -0.850310 0.154988 -0.055642
v -0.854513 0.150118 -0.049730
v -0.893634 0.177820 -0.049730
v -0.892369 0.184766 -0.055642
v -0.890641 0.194253 -0.057806
v -0.919475 0.194513 -0.049730
v -0.919475 0.202272 -0.055642
v -0.946581 0.184766 -0.055642
v -0.919475 0.212871 -0.057806
v -0.948310 0.194253 -0.057806
v -0.994382 0.161640 -0.057806
v -0.936709 0.215276 -0.057806
v -1.007008 0.176272 -0.055642
v -1.001234 0.169581 -0.057806
v -0.945282 0.219985 -0.055642
v -0.931322 0.427435 -0.057806
v -0.919499 0.249581 -0.057806
v -1.011235 0.181170 -0.049730
v -0.951558 0.223432 -0.049730
v -0.953855 0.224694 -0.041653
v -1.012783 0.182963 -0.041653
v -1.035438 0.166919 0.071425
v -1.035438 0.166919 -0.041653
v -1.012783 0.182963 0.071425
v -0.953855 0.224694 0.071425
v -0.951558 0.223432 0.079501
v -0.948604 0.431485 0.071425
v -1.011235 0.181170 0.079501
v -1.034112 0.164978 0.079491
v -1.030471 0.159643 0.085420
v -0.946289 0.430943 0.079501
v -1.039649 0.158259 -0.049378
v -1.034112 0.164978 -0.049719
v -1.041238 0.159932 -0.041653
v -1.037085 0.154503 -0.053552
v -1.030471 0.159643 -0.055648
v -1.025517 0.152385 -0.057806
v -0.894098 0.175278 -0.041653
v -0.856051 0.148335 0.071425
v -0.856051 0.148335 -0.041653
v -0.894098 0.175278 0.071425
v -0.893634 0.177820 0.079501
v -0.919475 0.191673 0.071425
v -0.919475 0.194513 0.079501
v -0.919475 0.202272 0.085414
v -0.946581 0.184766 0.085414
v -0.892369 0.184766 0.085414
v -0.850310 0.154988 0.085414
v -0.890641 0.194253 0.087578
v -0.854513 0.150118 0.079501
v -0.829186 0.129310 0.071425
v -0.827878 0.131226 0.079491
v -0.819756 0.128295 0.079149
v -0.817206 0.132030 0.083324
v -0.824256 0.136532 0.085420
v -0.819319 0.143764 0.087578
v -0.844569 0.161640 0.087578
v -0.813434 0.152385 0.087578
v -0.801866 0.154503 0.083324
v -0.806309 0.147339 0.085420
v -0.801071 0.143630 0.079491
v -0.812176 0.138743 0.085420
v -0.813505 0.129439 0.079149
v -0.806919 0.135064 0.079491
v -0.804995 0.133739 0.071425
v -0.799164 0.142280 0.071425
v -0.796117 0.150888 0.071425
v -0.799164 0.142280 -0.041653
v -0.798178 0.151892 0.079149
v -0.801071 0.143630 -0.049719
v -0.796117 0.150888 -0.041653
v -0.804995 0.133739 -0.041653
v -0.798178 0.151892 -0.049378
v -0.799302 0.158259 -0.049378
v -0.801866 0.154503 -0.053552
v -0.806309 0.147339 -0.055648
v -0.807130 0.135213 -0.049582
v -0.813424 0.129437 -0.049332
v -0.819835 0.128267 -0.049334
v -0.820710 0.126506 -0.041653
v -0.811982 0.128104 -0.041653
v -0.811845 0.127846 0.071425
v -0.820725 0.126220 0.071425
v -0.829186 0.129310 -0.041653
v -0.827721 0.131455 -0.049583
v -0.800004 0.067714 0.050548
v -0.800004 0.067714 -0.022444
v -0.809664 1.115527 -0.018555
v -0.809664 1.115527 0.046659
v -0.810322 0.067714 0.063814
v -0.804899 0.067714 0.060702
v -0.814335 1.115527 0.055731
v -0.819509 1.115527 0.058511
v -0.810322 0.067714 -0.035710
v -0.816718 0.067714 -0.036801
v -0.825612 1.115527 -0.031382
v -0.819509 1.115527 -0.030407
v -0.801276 0.067714 -0.027940
v -0.810878 1.115527 -0.023465
v -0.971648 0.067714 -0.036847
v -1.026492 0.067714 -0.036863
v -1.015395 1.115527 -0.031438
v -0.966225 1.115527 -0.031388
v -0.804900 0.067714 -0.032598
v -0.814335 1.115527 -0.027627
v -0.816718 0.067714 0.064905
v -0.825612 1.115527 0.059486
v -1.026492 0.067714 0.064967
v -1.015395 1.115527 0.059542
v -0.801276 0.067714 0.056044
v -0.810878 1.115527 0.051569
v -0.810911 0.064376 0.063269
v -0.817238 0.064376 0.064349
v -0.817238 0.000563 0.064349
v -0.810911 0.000563 0.063269
v -0.971694 0.067714 0.064951
v -0.966245 1.115527 0.059492
v -0.801965 0.064376 0.055584
v -0.805548 0.064376 0.060192
v -0.805548 0.000563 0.060192
v -0.801965 0.000563 0.055584
v -1.036351 1.266026 0.057798
v -1.036351 1.266026 -0.029694
v -0.966879 1.265867 -0.027705
v -1.048376 1.306329 -0.028254
v -1.048376 1.306329 0.056358
v -1.014464 1.316337 0.055350
v -1.014464 1.316337 -0.027246
v -0.966879 1.308505 -0.027163
v -0.966879 1.316337 -0.027065
v -0.966879 1.316337 0.055168
v -0.966879 1.308505 0.055266
v -0.966879 1.265867 0.055809
v -0.833665 1.308893 -0.027353
v -0.834483 1.316337 -0.027258
v -0.828361 1.316337 -0.026174
v -0.827549 1.308911 -0.026269
v -0.823170 1.316337 -0.023068
v -0.822363 1.308926 -0.023163
v -0.819702 1.316337 -0.018414
v -0.818899 1.308936 -0.018508
v -0.818484 1.316337 -0.012919
v -0.817682 1.308940 -0.013014
v -0.834483 1.316337 0.055362
v -0.833665 1.308893 0.055457
v -0.827549 1.308911 0.054373
v -0.828361 1.316337 0.054278
v -0.822363 1.308926 0.051267
v -0.823170 1.316337 0.051172
v -0.818899 1.308936 0.046612
v -0.819702 1.316337 0.046518
v -0.817682 1.308940 0.041118
v -0.818484 1.316337 0.041023
v -0.830952 1.267736 0.055975
v -0.824839 1.267820 0.054889
v -0.819657 1.267892 0.051782
v -0.816195 1.267939 0.047127
v -0.814979 1.267956 0.041633
v -0.830952 1.267736 -0.027871
v -0.824839 1.267820 -0.026785
v -0.819657 1.267892 -0.023678
v -0.816195 1.267939 -0.019023
v -0.814979 1.267956 -0.013529
v -0.954407 1.316337 -0.008016
v -0.890813 1.316337 -0.007963
v -0.890813 1.316337 0.035028
v -0.954407 1.316337 0.035080
v -0.944535 1.362785 0.028398
v -0.944535 1.362785 -0.001334
v -0.900608 1.362785 -0.001334
v -0.900608 1.362785 0.028398
v -0.970517 0.000563 0.064394
v -0.970473 0.000563 -0.036290
v -0.817238 0.000563 -0.036245
v -0.810911 0.000563 -0.035165
v -0.805548 0.000563 -0.032088
v -0.801965 0.000563 -0.027480
v -0.800706 0.000563 -0.022045
v -0.800706 0.000563 0.050149
v -1.024716 0.000563 0.064410
v -1.024716 0.000563 -0.036306
v -0.970517 0.064376 0.064394
v -1.024716 0.064376 0.064410
v -0.800706 0.064376 -0.022045
v -0.800706 0.064376 0.050149
v -1.024716 0.064376 -0.036306
v -0.970473 0.064376 -0.036290
v -0.817238 0.064376 -0.036245
v -0.810911 0.064376 -0.035165
v -0.805548 0.064376 -0.032088
v -0.801965 0.064376 -0.027480
v -1.009765 0.068099 0.071425
v -1.019195 0.067084 0.079149
v -1.011073 0.070015 0.079491
v -1.018226 0.065009 0.071425
v -1.009765 0.068099 -0.041653
v -0.984438 0.088907 0.079501
v -0.982900 0.087124 0.071425
v -0.945316 0.116609 0.079501
v -0.944853 0.114067 0.071425
v -0.944853 0.114067 -0.041653
v -0.982900 0.087124 -0.041653
v -1.011230 0.070244 -0.049583
v -0.984438 0.088907 -0.049730
v -1.014790 0.075460 -0.055411
v -0.988641 0.093777 -0.055642
v -0.945316 0.116609 -0.049730
v -0.946581 0.123554 -0.055642
v -0.919475 0.130462 -0.041653
v -0.919475 0.133302 -0.049730
v -0.919475 0.141061 -0.055642
v -0.893634 0.116609 -0.049730
v -0.892369 0.123554 -0.055642
v -0.850310 0.093777 -0.055642
v -0.890641 0.133042 -0.057806
v -0.844569 0.100429 -0.057806
v -0.819319 0.082553 -0.057806
v -0.824461 0.121752 -0.057806
v -0.884481 0.163483 -0.057806
v -0.919499 0.188370 -0.057806
v -0.885096 0.163483 0.071425
v -0.919475 0.188370 0.071425
v -0.953388 0.160920 0.079501
v -0.953855 0.163483 0.071425
v -0.919475 0.185469 0.079501
v -0.954516 0.163483 -0.057806
v -0.885563 0.160920 0.079501
v -0.827718 0.119957 0.079501
v -0.831951 0.115051 0.085414
v -0.886838 0.153919 0.085414
v -0.919475 0.177544 0.085414
v -0.837733 0.108350 0.087578
v -0.888580 0.144355 0.087578
v -0.919475 0.166717 0.087578
v -0.890641 0.133042 0.087578
v -0.919475 0.151660 0.087578
v -0.950370 0.144355 0.087578
v -0.946581 0.123554 0.085414
v -0.919475 0.141061 0.085414
v -0.948310 0.133042 0.087578
v -0.892369 0.123554 0.085414
v -0.854513 0.088907 0.079501
v -0.893634 0.116609 0.079501
v -0.850310 0.093777 0.085414
v -0.827878 0.070015 0.079491
v -0.824256 0.075321 0.085420
v -0.844569 0.100429 0.087578
v -0.813448 0.091154 0.087578
v -0.819319 0.082553 0.087578
v -0.817206 0.070819 0.083324
v -0.812176 0.077532 0.085420
v -0.806440 0.086200 0.085181
v -0.801939 0.093273 0.083386
v -0.801286 0.082562 0.079353
v -0.806919 0.073852 0.079491
v -0.798153 0.090597 0.079104
v -0.799164 0.081069 0.071425
v -0.804995 0.072528 0.071425
v -0.796412 0.089702 0.071425
v -0.799164 0.081069 -0.041653
v -0.796116 0.089690 -0.049730
v -0.804995 0.072528 -0.041653
v -0.813424 0.068226 -0.049332
v -0.811982 0.066893 -0.041653
v -0.807130 0.074002 -0.049582
v -0.817215 0.070893 -0.053616
v -0.812298 0.077619 -0.055410
v -0.797707 0.098709 -0.055642
v -0.803513 0.105708 0.071425
v -0.797981 0.098592 0.071425
v -0.803513 0.105708 -0.057806
v -0.799305 0.097131 0.079103
v -0.808571 0.098298 0.085181
v -0.804987 0.103549 0.079353
v -0.826168 0.121752 0.071425
v -0.819835 0.067056 -0.049334
v -0.824161 0.075460 -0.055411
v -0.827721 0.070244 -0.049583
v -0.854513 0.088907 -0.049730
v -0.894098 0.114067 -0.041653
v -0.856051 0.087124 -0.041653
v -0.829186 0.068099 -0.041653
v -0.856051 0.087124 0.071425
v -0.894098 0.114067 0.071425
v -0.829186 0.068099 0.071425
v -0.819756 0.067084 0.079149
v -0.820725 0.065009 0.071425
v -0.811845 0.066635 0.071425
v -0.820710 0.065295 -0.041653
v -0.813505 0.068228 0.079149
v -0.919475 0.130462 0.071425
v -0.919475 0.133302 0.079501
v -1.001217 0.108350 0.087578
v -0.988641 0.093777 0.085414
v -0.994382 0.100429 0.087578
v -1.014695 0.075321 0.085420
v -1.025503 0.091154 0.087578
v -1.019632 0.082553 0.087578
v -1.021744 0.070819 0.083324
v -1.026775 0.077532 0.085420
v -1.032511 0.086200 0.085181
v -1.037012 0.093273 0.083386
v -1.037664 0.082562 0.079353
v -1.040797 0.090597 0.079104
v -1.039786 0.081069 0.071425
v -1.032032 0.073852 0.079491
v -1.025446 0.068228 0.079149
v -1.033956 0.072528 0.071425
v -1.027105 0.066635 0.071425
v -1.026969 0.066893 -0.041653
v -1.033956 0.072528 -0.041653
v -1.039786 0.081069 -0.041653
v -1.042539 0.089702 0.071425
v -1.042835 0.089690 -0.049730
v -1.040970 0.098592 0.071425
v -1.041244 0.098709 -0.055642
v -1.031821 0.074002 -0.049582
v -1.025527 0.068226 -0.049332
v -1.021735 0.070893 -0.053616
v -1.026653 0.077619 -0.055410
v -1.019632 0.082553 -0.057806
v -1.035438 0.105708 -0.057806
v -1.035438 0.105708 0.071425
v -1.014536 0.121752 -0.057806
v -0.994382 0.100429 -0.057806
v -1.012783 0.121752 0.071425
v -1.033964 0.103549 0.079353
v -1.011233 0.119957 0.079501
v -1.030379 0.098298 0.085181
v -1.007000 0.115051 0.085414
v -0.952113 0.153919 0.085414
v -1.039645 0.097131 0.079103
v -0.948310 0.133042 -0.057806
v -0.919475 0.151660 -0.057806
v -1.019116 0.067056 -0.049334
v -1.018241 0.065295 -0.041653
vn 0.3290 -0.9008 0.2833
vn 0.3171 -0.9099 0.2675
vn 0.5552 -0.7838 0.2781
vn 0.5555 -0.7839 0.2773
vn 0.5559 -0.7839 0.2764
vn 0.3430 -0.9393 -0.0000
vn 0.5779 -0.8161 -0.0000
vn 0.5550 -0.7838 0.2787
vn 0.5550 -0.7838 0.2786
vn 0.5550 -0.7838 0.2785
vn 0.5550 -0.7838 -0.2785
vn 0.5483 -0.7885 -0.2786
vn 0.5549 -0.7839 -0.2786
vn 0.5204 -0.8056 -0.2833
vn 0.5204 -0.8055 -0.2834
vn 0.5204 -0.8055 -0.2833
vn 0.5426 -0.8400 -0.0000
vn 0.5479 -0.7888 -0.2785
vn 0.3921 -0.5538 -0.7346
vn 0.3850 -0.5585 -0.7347
vn 0.3920 -0.5539 -0.7345
vn 0.3850 -0.5589 -0.7345
vn 0.3849 -0.5584 -0.7349
vn 0.2383 -0.6466 -0.7246
vn 0.2382 -0.6466 -0.7247
vn 0.2378 -0.6466 -0.7248
vn -0.0237 -0.3343 -0.9422
vn -0.0237 -0.3346 -0.9421
vn 0.1484 -0.2240 -0.9632
vn 0.2386 -0.6467 -0.7245
vn 0.3488 -0.8865 -0.3042
vn 0.3044 -0.9203 -0.2457
vn -0.1762 -0.9637 -0.2006
vn -0.1759 -0.9637 -0.2009
vn -0.1423 -0.7788 -0.6109
vn -0.1764 -0.9637 -0.2004
vn -0.6086 -0.7546 -0.2453
vn -0.6377 -0.7080 -0.3033
vn -0.4506 -0.5224 -0.7239
vn -0.4506 -0.5223 -0.7240
vn -0.7690 -0.5586 -0.3109
vn -0.4506 -0.5225 -0.7238
vn -0.5451 -0.4043 -0.7344
vn -0.5452 -0.4043 -0.7344
vn -0.5451 -0.4043 -0.7345
vn -0.7934 -0.5415 -0.2781
vn -0.6669 -0.2039 -0.7167
vn -0.9128 -0.3086 -0.2674
vn -0.9426 -0.3338 -0.0000
vn -0.9427 -0.3338 -0.0000
vn -0.9042 -0.3202 -0.2828
vn -0.8259 -0.5638 -0.0000
vn -0.9848 0.1738 -0.0000
vn -0.9575 0.1690 0.2336
vn -0.9575 0.1690 0.2335
vn -0.9041 -0.3202 0.2829
vn -0.7836 0.1383 0.6057
vn -0.6669 -0.2039 0.7167
vn -0.6670 -0.2039 0.7167
vn -0.9129 -0.3086 0.2674
vn -0.7933 -0.5415 0.2782
vn -0.7933 -0.5416 0.2781
vn -0.7933 -0.5415 0.2781
vn -0.5605 -0.3826 0.7345
vn -0.5605 -0.3827 0.7344
vn -0.4291 -0.5462 0.7194
vn -0.6175 -0.7393 0.2687
vn -0.6252 -0.7269 0.2842
vn -0.1750 -0.9561 0.2348
vn -0.1750 -0.9562 0.2348
vn -0.1426 -0.7794 0.6101
vn 0.2087 -0.6620 0.7198
vn 0.2086 -0.6621 0.7197
vn 0.2087 -0.6619 0.7199
vn -0.0700 -0.3288 0.9418
vn -0.0510 -0.3323 0.9418
vn -0.1982 -0.1353 0.9708
vn -0.0000 -0.0000 1.0000
vn 0.1384 -0.1954 0.9709
vn 0.1388 -0.1959 0.9708
vn 0.1383 -0.1953 0.9709
vn 0.1389 -0.1960 0.9707
vn 0.1380 -0.1962 0.9708
vn -0.1380 0.1949 0.9711
vn -0.1378 0.1948 0.9711
vn -0.2416 0.0061 0.9704
vn -0.2200 0.0982 0.9705
vn 0.2200 0.0982 0.9705
vn 0.6207 0.2769 0.7335
vn -0.6207 0.2769 0.7335
vn 0.2416 0.0061 0.9704
vn 0.6806 0.0173 0.7325
vn 0.3909 0.5519 0.7366
vn 0.1380 0.1949 0.9711
vn 0.9605 0.0244 0.2771
vn 0.9606 0.0244 0.2770
vn 0.5547 0.7834 0.2802
vn 0.5548 0.7834 0.2802
vn 0.3909 0.5518 0.7367
vn 0.5548 0.7835 0.2799
vn 0.5543 0.4202 0.7185
vn 0.5543 0.4201 0.7185
vn 0.7501 0.6043 0.2687
vn 0.5548 0.7835 0.2798
vn 0.7377 0.6123 0.2844
vn 0.7695 0.6387 -0.0000
vn 0.5779 0.8161 -0.0000
vn 0.5548 0.7834 -0.2802
vn 0.5548 0.7834 -0.2801
vn 0.5547 0.7835 -0.2799
vn 0.9997 0.0254 -0.0000
vn 0.9606 0.0244 -0.2770
vn 0.9605 0.0244 -0.2771
vn 0.9132 0.4074 -0.0000
vn 0.8773 0.3914 -0.2778
vn -0.8773 0.3914 -0.2777
vn -0.8773 0.3914 -0.2778
vn -0.6207 0.2769 -0.7336
vn 0.6207 0.2769 -0.7336
vn -0.2200 0.0982 -0.9705
vn 0.2200 0.0982 -0.9705
vn 0.6805 0.0173 -0.7325
vn 0.2201 0.0982 -0.9705
vn 0.2416 0.0061 -0.9704
vn 0.1380 0.1949 -0.9711
vn 0.1380 0.1950 -0.9711
vn 0.3908 0.5519 -0.7367
vn 0.3909 0.5518 -0.7367
vn 0.3909 0.5519 -0.7367
vn 0.1379 0.1947 -0.9711
vn -0.0000 -0.0000 -1.0000
vn 0.0237 -0.3343 -0.9422
vn 0.0957 -0.3213 -0.9421
vn 0.2221 -0.1516 -0.9632
vn -0.1484 -0.2240 -0.9632
vn -0.1388 -0.1960 -0.9707
vn -0.3921 -0.5538 -0.7346
vn -0.3920 -0.5539 -0.7345
vn -0.3850 -0.5585 -0.7347
vn -0.3850 -0.5587 -0.7346
vn -0.1397 -0.1953 -0.9707
vn -0.3645 -0.5643 -0.7407
vn -0.3645 -0.5642 -0.7408
vn -0.3645 -0.5642 -0.7409
vn -0.1281 -0.1984 -0.9717
vn -0.1270 -0.1986 -0.9718
vn -0.3645 -0.5644 -0.7407
vn 0.3645 -0.5643 -0.7407
vn 0.3645 -0.5642 -0.7408
vn 0.3645 -0.5644 -0.7407
vn 0.1281 -0.1984 -0.9717
vn 0.1398 -0.1955 -0.9707
vn 0.1271 -0.1987 -0.9718
vn 0.1388 -0.1960 -0.9707
vn -0.1380 0.1949 -0.9711
vn -0.1380 0.1950 -0.9711
vn -0.2416 0.0061 -0.9704
vn -0.3908 0.5519 -0.7367
vn -0.3909 0.5519 -0.7367
vn -0.3909 0.5518 -0.7367
vn -0.6805 0.0173 -0.7325
vn -0.9606 0.0244 -0.2770
vn -0.5548 0.7834 -0.2802
vn -0.5779 0.8161 -0.0000
vn -0.5547 0.7835 -0.2798
vn -0.9606 0.0244 0.2770
vn -0.5547 0.7834 0.2803
vn -0.5548 0.7834 0.2802
vn -0.9997 0.0254 -0.0000
vn -0.5547 0.7834 0.2802
vn -0.3909 0.5519 0.7366
vn -0.5548 0.7835 0.2798
vn -0.1378 0.1947 0.9711
vn -0.3367 0.0498 0.9403
vn -0.5543 0.4202 0.7185
vn -0.5543 0.4203 0.7185
vn -0.7500 0.6044 0.2687
vn -0.5549 0.7835 0.2798
vn -0.9132 0.4074 -0.0000
vn -0.8773 0.3914 0.2778
vn -0.8773 0.3914 0.2777
vn -0.6806 0.0173 0.7325
vn -0.7694 0.6387 -0.0000
vn -0.7377 0.6123 -0.2844
vn -0.7500 0.6044 -0.2687
vn -0.5547 0.7836 -0.2798
vn -0.9575 0.1690 -0.2335
vn -0.9575 0.1690 -0.2336
vn -0.5542 0.4202 -0.7185
vn -0.5543 0.4202 -0.7185
vn -0.3909 0.5518 -0.7366
vn -0.3367 0.0498 -0.9403
vn -0.1379 0.1947 -0.9711
vn -0.1378 0.1947 -0.9711
vn -0.1833 -0.1562 -0.9706
vn -0.2221 -0.1516 -0.9632
vn -0.3333 0.0684 -0.9403
vn -0.7835 0.1383 -0.6058
vn -0.6669 -0.2039 -0.7168
vn -0.9575 0.1691 -0.2335
vn -0.7377 0.6123 0.2844
vn -0.5204 -0.8056 -0.2833
vn -0.5204 -0.8055 -0.2834
vn -0.5550 -0.7838 -0.2786
vn -0.5483 -0.7885 -0.2786
vn -0.5779 -0.8161 -0.0000
vn -0.5427 -0.8400 -0.0000
vn -0.5550 -0.7838 0.2787
vn -0.5550 -0.7838 0.2786
vn -0.5204 -0.8055 0.2834
vn -0.5204 -0.8055 0.2833
vn 0.5204 -0.8055 0.2834
vn 0.5204 -0.8056 0.2833
vn 0.3645 -0.5643 0.7408
vn 0.3646 -0.5644 0.7406
vn 0.3646 -0.5644 0.7407
vn -0.3645 -0.5643 0.7408
vn -0.3646 -0.5644 0.7407
vn -0.3646 -0.5644 0.7406
vn 0.1289 -0.1982 0.9717
vn 0.1281 -0.1984 0.9717
vn 0.3644 -0.5643 0.7408
vn -0.1289 -0.1982 0.9717
vn -0.1281 -0.1984 0.9717
vn -0.3644 -0.5643 0.7408
vn -0.1389 -0.1960 0.9707
vn -0.1380 -0.1962 0.9708
vn -0.3922 -0.5536 0.7347
vn -0.3922 -0.5538 0.7345
vn -0.5552 -0.7838 0.2781
vn -0.5555 -0.7839 0.2774
vn -0.5559 -0.7839 0.2764
vn -0.3922 -0.5534 0.7348
vn -0.3171 -0.9099 0.2676
vn -0.2087 -0.6620 0.7198
vn -0.2086 -0.6621 0.7198
vn -0.2087 -0.6620 0.7199
vn -0.1387 -0.1956 0.9708
vn -0.1383 -0.1953 0.9709
vn -0.1385 -0.1955 0.9709
vn 0.0700 -0.3288 0.9418
vn 0.1982 -0.1353 0.9708
vn 0.3367 0.0498 0.9403
vn 0.3333 0.0684 0.9403
vn 0.1378 0.1948 0.9711
vn 0.1378 0.1947 0.9711
vn 0.6669 -0.2039 0.7167
vn 0.5605 -0.3826 0.7345
vn 0.0510 -0.3323 0.9418
vn 0.4291 -0.5462 0.7194
vn 0.4292 -0.5462 0.7194
vn 0.5605 -0.3827 0.7344
vn 0.6174 -0.7393 0.2687
vn 0.7933 -0.5416 0.2782
vn 0.9427 -0.3337 -0.0000
vn 0.9042 -0.3201 0.2829
vn 0.9128 -0.3086 0.2675
vn 0.8259 -0.5638 -0.0000
vn 0.7836 0.1383 0.6057
vn 0.6670 -0.2039 0.7167
vn 0.9575 0.1690 0.2336
vn 0.9576 0.1690 0.2335
vn 0.7933 -0.5416 -0.2782
vn 0.9128 -0.3086 -0.2675
vn 0.9042 -0.3201 -0.2828
vn 0.7835 0.1383 -0.6058
vn 0.9576 0.1690 -0.2335
vn 0.9575 0.1690 -0.2338
vn 0.6669 -0.2039 -0.7167
vn 0.5451 -0.4043 -0.7344
vn 0.5452 -0.4043 -0.7344
vn 0.5451 -0.4043 -0.7345
vn 0.3333 0.0684 -0.9403
vn 0.1833 -0.1562 -0.9706
vn 0.7690 -0.5586 -0.3109
vn 0.6377 -0.7080 -0.3033
vn 0.4506 -0.5224 -0.7239
vn 0.4506 -0.5225 -0.7238
vn 0.1423 -0.7789 -0.6108
vn 0.1762 -0.9637 -0.2006
vn 0.1759 -0.9637 -0.2009
vn 0.1764 -0.9637 -0.2004
vn 0.6086 -0.7546 -0.2453
vn 0.6278 -0.7784 -0.0000
vn 0.6522 -0.7581 -0.0025
vn 0.1801 -0.9836 -0.0025
vn 0.1750 -0.9561 0.2349
vn 0.1750 -0.9562 0.2348
vn 0.6253 -0.7268 0.2843
vn 0.1751 -0.9561 0.2349
vn -0.3430 -0.9393 -0.0000
vn -0.3290 -0.9008 0.2833
vn -0.3141 -0.9494 -0.0024
vn -0.3044 -0.9203 -0.2457
vn -0.3488 -0.8865 -0.3042
vn -0.5492 -0.7756 -0.3112
vn -0.2382 -0.6466 -0.7246
vn -0.2382 -0.6466 -0.7247
vn -0.2386 -0.6467 -0.7245
vn -0.3849 -0.5584 -0.7349
vn -0.5479 -0.7888 -0.2785
vn -0.2378 -0.6466 -0.7249
vn 0.5542 0.4202 -0.7185
vn 0.3367 0.0498 -0.9403
vn 0.9575 0.1690 -0.2336
vn 0.7377 0.6123 -0.2844
vn 0.7500 0.6044 -0.2687
vn 0.9848 0.1738 -0.0000
vn 0.1426 -0.7794 0.6101
vn 0.3922 -0.5536 0.7347
vn 0.3921 -0.5538 0.7345
vn 0.3922 -0.5538 0.7345
vn 0.5547 0.7836 -0.2798
vn 0.8773 0.3914 0.2778
vn 0.8773 0.3914 0.2779
vn 0.3922 -0.5534 0.7348
vn -0.3333 0.0684 0.9403
vn -0.6521 -0.7581 -0.0025
vn -0.1751 -0.9561 0.2349
vn -0.1801 -0.9836 -0.0025
vn -0.6278 -0.7784 -0.0000
vn -0.0957 -0.3213 -0.9421
vn 0.3141 -0.9494 -0.0024
vn 0.5492 -0.7756 -0.3112
vn 1.0000 0.0092 -0.0000
vn 0.4977 0.0086 0.8673
vn 0.4733 0.0086 0.8809
vn 0.1608 0.0064 -0.9870
vn 0.1681 0.0065 -0.9857
vn 0.1651 0.0064 -0.9863
vn 0.1578 0.0064 -0.9875
vn 0.9742 0.0099 -0.2255
vn 0.9707 0.0098 -0.2400
vn 0.0003 0.0052 -1.0000
vn 0.0010 0.0052 -1.0000
vn 0.0005 0.0052 -1.0000
vn 0.7892 0.0100 -0.6140
vn 0.7692 0.0098 -0.6389
vn 0.1608 0.0064 0.9870
vn 0.1681 0.0065 0.9857
vn 0.1651 0.0065 0.9863
vn 0.1578 0.0064 0.9875
vn -0.9999 0.0106 -0.0000
vn 0.4978 0.0088 -0.8673
vn 0.4733 0.0084 -0.8809
vn 0.7893 0.0099 0.6139
vn 0.7692 0.0100 0.6389
vn 0.9742 0.0098 0.2255
vn 0.9707 0.0099 0.2400
vn 0.1683 -0.0000 0.9857
vn 0.0003 0.0052 1.0000
vn -0.0012 0.0048 1.0000
vn 0.0004 0.0053 1.0000
vn -0.0000 0.0052 -1.0000
vn -0.0000 0.0052 1.0000
vn 0.7894 -0.0000 0.6138
vn -0.9904 -0.1379 -0.0000
vn 0.0287 0.0156 -0.9995
vn 0.0285 0.0132 -0.9995
vn 0.0282 0.0154 -0.9995
vn 0.0010 0.0245 -0.9997
vn 0.0001 0.0243 -0.9997
vn 0.0005 0.0245 -0.9997
vn -0.2830 0.9591 -0.0000
vn 0.0117 0.0607 -0.9981
vn -0.0021 0.0125 -0.9999
vn 0.0038 0.0125 -0.9999
vn -0.0015 0.0126 -0.9999
vn 0.0038 0.0874 0.9962
vn 0.0131 0.0125 0.9998
vn 0.0131 0.0127 0.9998
vn 0.0131 0.0126 0.9998
vn 0.0287 0.0442 0.9986
vn 0.0123 0.0394 -0.9991
vn 0.0286 0.0127 -0.9995
vn -0.9583 -0.2859 -0.0000
vn 0.1745 0.0318 -0.9841
vn 0.1743 0.0317 -0.9842
vn 0.1746 0.0238 -0.9843
vn 0.5124 0.0669 -0.8561
vn 0.5123 0.0670 -0.8562
vn 0.5125 0.0668 -0.8561
vn 0.7984 0.0943 -0.5946
vn 0.7983 0.0945 -0.5948
vn 0.7984 0.0944 -0.5947
vn 0.7986 0.0942 -0.5945
vn 0.9706 0.1080 -0.2151
vn 0.1743 0.0317 0.9842
vn 0.1746 0.0240 0.9843
vn 0.1745 0.0315 0.9842
vn 0.1743 0.0316 0.9842
vn 0.5124 0.0669 0.8561
vn 0.5125 0.0670 0.8561
vn 0.5123 0.0668 0.8562
vn 0.7984 0.0943 0.5947
vn 0.7986 0.0946 0.5945
vn 0.7984 0.0944 0.5946
vn 0.7983 0.0942 0.5949
vn 0.9706 0.1080 0.2151
vn 0.1745 0.0266 0.9843
vn 0.1744 0.0239 0.9844
vn 0.5132 0.0446 0.8571
vn 0.5133 0.0424 0.8571
vn 0.8007 0.0603 0.5960
vn 0.8007 0.0603 0.5961
vn 0.9741 0.0670 0.2158
vn 0.1744 0.0239 -0.9844
vn 0.1745 0.0268 -0.9843
vn 0.5132 0.0446 -0.8571
vn 0.5133 0.0423 -0.8571
vn 0.8007 0.0603 -0.5961
vn 0.8007 0.0603 -0.5960
vn 0.9741 0.0670 -0.2158
vn -0.0014 0.0127 -0.9999
vn -0.0015 0.0125 -0.9999
vn 0.9978 0.0658 -0.0000
vn 0.9994 0.0348 -0.0000
vn -0.0007 0.0238 -0.9997
vn -0.0015 0.0127 0.9999
vn -0.0008 0.0240 0.9997
vn -0.0014 0.0126 0.9999
vn -0.0015 0.0126 0.9999
vn 0.9942 0.1078 -0.0000
vn -0.0015 0.0125 0.9999
vn 0.7685 0.0434 0.6383
vn 0.8014 0.0453 0.5965
vn 0.9700 0.0408 0.2398
vn 0.9755 0.0411 0.2160
vn 0.4730 0.0375 0.8803
vn 0.5134 0.0402 0.8572
vn 0.9755 0.0411 -0.2160
vn 0.9700 0.0408 -0.2398
vn 0.8014 0.0453 -0.5965
vn 0.7685 0.0434 -0.6383
vn 0.1577 0.0283 0.9871
vn 0.1744 0.0295 0.9842
vn 0.5134 0.0401 -0.8572
vn 0.4730 0.0375 -0.8803
vn -0.0015 0.0244 0.9997
vn -0.0000 0.0231 0.9997
vn 0.1744 0.0295 -0.9842
vn 0.1577 0.0283 -0.9871
vn 0.0010 0.0117 0.9999
vn 0.0287 0.0246 0.9993
vn -0.0000 1.0000 -0.0000
vn -0.0000 1.0000 0.0001
vn -0.0000 1.0000 -0.0002
vn -0.9782 0.2079 -0.0000
vn 0.0004 0.1419 -0.9899
vn -0.0000 0.1424 -0.9898
vn 0.0001 0.1423 -0.9898
vn 0.0008 0.1415 -0.9899
vn 0.9785 0.2063 -0.0000
vn 0.0004 0.1418 0.9899
vn -0.0000 0.1413 0.9900
vn 0.0002 0.1415 0.9899
vn 0.0008 0.1422 0.9898
vn -0.0000 -1.0000 -0.0000
vn 0.0003 -0.0000 1.0000
vn 1.0000 -0.0000 -0.0000
vn 0.0003 -0.0000 -1.0000
vn 0.1683 -0.0000 -0.9857
vn -1.0000 -0.0000 -0.0000
vn 0.9742 -0.0000 0.2257
vn 0.7894 -0.0000 -0.6138
vn 0.9742 -0.0000 -0.2257
vn 0.4977 -0.0000 0.8674
vn 0.4977 -0.0000 -0.8674
vn 0.0003 -0.1645 -0.9864
vn 0.0003 -0.1643 -0.9864
vn 0.4851 -0.2235 -0.8454
vn 0.4852 -0.2234 -0.8454
vn 0.4852 -0.2232 -0.8454
vn 0.0003 -0.1643 0.9864
vn 0.0003 -0.1645 0.9864
vn 0.4851 -0.2235 0.8454
vn 0.4851 -0.2236 0.8454
vn 0.9490 -0.2260 -0.2198
vn 0.9491 -0.2259 -0.2197
vn 0.9490 -0.2260 -0.2197
vn 0.9491 -0.2257 -0.2196
vn 0.7663 -0.2400 -0.5960
vn 0.7661 -0.2403 -0.5961
vn 0.7662 -0.2401 -0.5960
vn 0.7662 -0.2402 -0.5961
vn 0.9490 -0.2260 0.2198
vn 0.9490 -0.2262 0.2196
vn 0.9490 -0.2261 0.2197
vn 0.9490 -0.2259 0.2198
vn -0.8828 -0.4697 -0.0000
vn 0.1653 -0.1871 -0.9683
vn 0.1652 -0.1873 -0.9683
vn 0.1652 -0.1872 -0.9683
vn 0.1653 -0.1870 -0.9683
vn 0.0003 -0.1644 -0.9864
vn 0.9786 -0.2058 -0.0000
vn 0.9786 -0.2059 -0.0000
vn 0.0003 -0.1644 0.9864
vn 0.7663 -0.2399 0.5960
vn 0.7663 -0.2401 0.5960
vn 0.7663 -0.2401 0.5959
vn 0.7663 -0.2403 0.5959
vn 0.1653 -0.1872 0.9683
vn 0.1655 -0.1872 0.9683
vn 0.1652 -0.1871 0.9683
vn 0.1653 -0.1869 0.9684
vn 0.5550 -0.7838 -0.2786
vn 0.3850 -0.5585 -0.7348
vn 0.3921 -0.5538 -0.7345
vn 0.3645 -0.5643 -0.7408
vn -0.3645 -0.5643 -0.7408
vn -0.3921 -0.5538 -0.7345
vn -0.3920 -0.5538 -0.7345
vn -0.1271 -0.1988 -0.9718
vn -0.1398 -0.1955 -0.9707
vn 0.5849 0.8111 0.0022
vn 0.5793 0.8151 -0.0001
vn 0.5808 0.8140 0.0005
vn 0.5864 0.8100 0.0028
vn 0.5775 0.8164 0.0073
vn 0.5709 0.8210 0.0027
vn 0.5720 0.8203 0.0034
vn -0.5630 0.7778 0.2794
vn -0.5628 0.7780 0.2793
vn -0.5550 0.7832 0.2805
vn -0.5829 0.8125 0.0022
vn -0.5739 0.8189 0.0046
vn -0.5808 0.8140 0.0007
vn 0.5630 0.7778 0.2794
vn 0.5628 0.7780 0.2793
vn -0.5793 0.8151 0.0001
vn 0.5550 0.7832 0.2805
vn 0.5547 0.7833 0.2806
vn 0.3903 0.5515 0.7372
vn 0.3987 0.5457 0.7371
vn 0.3909 0.5513 0.7371
vn 0.3968 0.5489 0.7357
vn 0.3973 0.5488 0.7355
vn 0.1405 0.1941 0.9709
vn 0.1402 0.1941 0.9709
vn 0.1381 0.1946 0.9711
vn -0.3922 -0.5539 0.7344
vn -0.3645 -0.5643 0.7407
vn -0.1388 -0.1957 0.9708
vn 0.2129 -0.1141 0.9704
vn 0.2222 -0.1517 0.9631
vn 0.3383 0.0234 0.9407
vn 0.6523 -0.2320 0.7216
vn 0.6523 -0.2319 0.7216
vn 0.5755 -0.3606 0.7340
vn 0.8004 -0.5127 0.3108
vn 0.5755 -0.3605 0.7340
vn 0.6522 -0.2320 0.7216
vn 0.8912 -0.3382 0.3022
vn 0.7933 -0.5416 0.2781
vn 0.9240 -0.2946 0.2438
vn 0.9528 -0.3037 -0.0000
vn 0.9435 -0.3314 0.0023
vn 0.7932 -0.5415 -0.2787
vn 0.7765 -0.5481 -0.3110
vn 0.5531 -0.3913 -0.7355
vn 0.5474 -0.3903 -0.7403
vn 0.5543 -0.3915 -0.7345
vn 0.5456 -0.3900 -0.7418
vn 0.1904 -0.1424 -0.9713
vn 0.7696 0.6385 -0.0000
vn 0.7895 0.6138 0.0023
vn 0.9846 0.1747 0.0023
vn 0.9847 0.1743 0.0024
vn 0.9845 0.1752 0.0023
vn 0.6080 0.7939 -0.0000
vn 0.7654 0.5950 0.2452
vn 0.9651 0.1703 0.1989
vn 0.9651 0.1703 0.1990
vn 0.9651 0.1702 0.1988
vn 0.9848 0.1738 0.0024
vn 0.7832 0.1382 0.6062
vn 0.5304 0.4414 0.7238
vn 0.7192 0.6249 0.3039
vn 0.5489 0.7750 0.3131
vn 0.5626 0.7775 0.2810
vn 0.5629 0.7773 0.2808
vn 0.3985 0.5455 0.7373
vn 0.3988 0.5458 0.7370
vn 0.5779 0.8161 0.0076
vn 0.1620 0.2127 0.9636
vn 0.3255 0.0935 0.9409
vn -0.5549 -0.7839 -0.2786
vn -0.3175 -0.9097 0.2677
vn -0.3045 -0.9203 -0.2457
vn 0.1755 -0.9561 0.2348
vn 0.6174 -0.7394 0.2686
vn 0.3645 -0.5643 0.7407
vn 0.1388 -0.1957 0.9708
vn -0.2129 -0.1141 0.9704
vn -0.2222 -0.1517 0.9631
vn -0.3383 0.0234 0.9407
vn -0.6523 -0.2320 0.7216
vn -0.5755 -0.3606 0.7340
vn -0.8913 -0.3381 0.3022
vn -0.8004 -0.5127 0.3108
vn -0.5755 -0.3605 0.7340
vn -0.6174 -0.7394 0.2686
vn -0.7934 -0.5415 0.2781
vn -0.9527 -0.3038 -0.0000
vn -0.9435 -0.3315 0.0023
vn -0.7931 -0.5415 -0.2788
vn -0.7933 -0.5415 -0.2785
vn -0.9846 0.1746 0.0023
vn -0.9848 0.1738 0.0024
vn -0.9845 0.1752 0.0023
vn -0.5531 -0.3913 -0.7355
vn -0.5474 -0.3903 -0.7402
vn -0.5456 -0.3900 -0.7418
vn -0.7765 -0.5481 -0.3110
vn -0.5543 -0.3915 -0.7345
vn -0.1904 -0.1424 -0.9713
vn -0.6089 0.7933 -0.0000
vn -0.7697 0.6385 -0.0000
vn -0.5775 0.8163 0.0075
vn -0.5779 0.8161 0.0078
vn -0.5489 0.7750 0.3131
vn -0.5625 0.7776 0.2810
vn -0.5629 0.7773 0.2808
vn -0.5547 0.7833 0.2806
vn -0.3987 0.5457 0.7370
vn -0.3983 0.5455 0.7374
vn -0.3904 0.5515 0.7372
vn -0.3909 0.5512 0.7371
vn -0.1381 0.1946 0.9711
vn -0.3968 0.5488 0.7358
vn -0.1620 0.2127 0.9636
vn -0.1402 0.1942 0.9709
vn -0.1405 0.1941 0.9709
vn -0.3973 0.5488 0.7355
vn -0.3972 0.5488 0.7355
vn -0.3255 0.0935 0.9409
vn -0.5304 0.4414 0.7238
vn -0.5304 0.4415 0.7237
vn -0.5304 0.4413 0.7238
vn -0.7833 0.1382 0.6060
vn -0.7192 0.6248 0.3039
vn -0.7654 0.5950 0.2453
vn -0.9651 0.1703 0.1990
vn -0.9651 0.1702 0.1989
vn 0.1397 -0.1957 -0.9707
vn 0.1271 -0.1989 -0.9717
vn -0.7895 0.6137 0.0023
vn -0.1419 -0.7789 -0.6109
vn -0.9651 0.1703 0.1991
vn -0.9240 -0.2946 0.2439
vn 0.3921 -0.5536 0.7347
vn 0.3922 -0.5539 0.7345
vn 0.3922 -0.5539 0.7344
s 1
f 1//1 2//1 4//1
f 1//2 3//2 2//2
f 1//3 6//4 3//5
f 5//6 1//6 4//6
f 5//7 7//7 1//7
f 1//3 7//8 6//4
f 7//8 8//9 6//4
f 7//8 9//10 8//9
f 7//7 11//7 9//7
f 5//7 10//7 7//7
f 7//7 10//7 11//7
f 11//11 10//12 14//13
f 13//14 11//15 12//16
f 11//11 14//13 12//11
f 9//17 11//17 13//17
f 10//12 16//18 14//13
f 12//19 14//20 15//21
f 14//20 17//22 15//21
f 14//20 16//23 17//22
f 17//24 20//25 18//26
f 19//27 17//28 18//28
f 15//29 17//29 19//29
f 17//24 16//30 20//25
f 5//31 20//31 16//31
f 5//32 21//32 20//32
f 21//33 22//33 20//34
f 20//35 22//35 18//35
f 21//33 23//36 22//33
f 24//37 22//37 23//37
f 24//38 25//38 22//38
f 25//39 18//39 22//40
f 28//41 25//41 24//41
f 25//39 26//42 18//39
f 27//43 26//44 25//43
f 27//43 25//43 28//45
f 28//46 24//46 30//46
f 27//47 28//47 29//47
f 30//48 29//48 28//48
f 34//49 31//50 30//50
f 30//51 31//51 29//51
f 33//52 32//52 30//52
f 34//49 30//50 32//49
f 33//52 30//52 24//52
f 35//53 31//53 34//53
f 35//54 34//55 36//54
f 32//56 36//56 34//56
f 37//57 38//57 36//57
f 39//58 37//58 36//59
f 35//54 36//54 38//54
f 32//60 39//60 36//60
f 42//61 39//62 32//63
f 39//58 40//58 37//58
f 41//64 40//64 39//64
f 41//64 39//64 42//65
f 41//66 42//66 43//66
f 33//67 43//67 42//67
f 42//61 32//63 33//61
f 41//66 43//66 45//66
f 33//68 44//68 43//68
f 44//69 2//69 43//70
f 2//71 45//71 43//71
f 3//72 45//72 2//73
f 3//72 46//74 45//72
f 47//75 45//75 46//75
f 47//76 41//76 45//76
f 47//77 40//77 41//77
f 47//77 48//77 40//77
f 49//78 48//78 47//78
f 46//79 49//80 47//81
f 50//82 51//83 49//80
f 46//79 50//82 49//80
f 52//78 49//78 51//78
f 49//78 52//78 48//78
f 52//84 54//84 53//84
f 53//84 48//85 52//84
f 52//84 55//84 54//84
f 52//78 51//78 55//78
f 56//86 54//86 55//86
f 56//86 55//86 57//86
f 55//78 60//78 57//78
f 55//78 51//78 58//78
f 55//78 58//78 59//78
f 55//78 59//78 60//78
f 63//87 57//87 60//87
f 62//78 60//78 59//78
f 62//78 61//78 60//78
f 63//88 60//88 61//88
f 64//89 63//89 65//89
f 64//90 56//90 63//90
f 63//87 56//87 57//87
f 63//88 61//88 65//88
f 65//91 62//91 67//91
f 65//91 61//91 62//91
f 66//92 65//92 67//92
f 64//89 65//89 66//89
f 68//93 70//93 67//93
f 69//94 68//94 67//94
f 69//94 67//94 62//94
f 66//92 67//92 70//92
f 72//95 70//96 71//96
f 73//97 71//98 70//98
f 72//95 66//95 70//96
f 68//93 73//93 70//93
f 73//93 74//99 76//99
f 73//93 68//93 74//99
f 73//97 75//97 71//98
f 75//97 73//97 76//100
f 74//101 77//101 76//102
f 78//103 76//103 77//103
f 75//97 76//100 78//104
f 78//105 77//105 79//105
f 78//106 79//106 80//106
f 78//106 80//106 81//106
f 82//107 78//107 81//107
f 82//107 75//107 78//107
f 84//108 82//108 83//109
f 81//110 83//109 82//108
f 84//108 85//108 82//108
f 82//107 85//107 71//107
f 82//107 71//107 75//107
f 85//111 72//111 71//111
f 85//112 84//112 86//113
f 85//112 86//113 87//113
f 85//111 87//111 72//111
f 87//114 88//114 72//114
f 87//114 89//114 88//114
f 87//115 90//115 89//115
f 87//115 86//115 90//115
f 91//116 90//117 92//116
f 91//116 89//117 90//117
f 92//118 90//118 93//118
f 86//119 93//119 90//119
f 92//118 93//118 94//118
f 94//120 93//120 95//120
f 96//121 95//121 93//121
f 86//119 96//119 93//119
f 84//122 96//122 86//122
f 96//121 97//123 95//121
f 98//124 97//124 96//124
f 84//122 98//122 96//122
f 98//124 99//124 97//124
f 99//125 98//125 100//126
f 98//127 83//128 100//129
f 98//127 84//127 83//128
f 101//128 100//129 83//128
f 101//128 102//128 100//129
f 102//130 103//125 100//126
f 99//125 100//126 103//125
f 104//131 99//131 103//131
f 106//131 104//131 103//131
f 102//130 105//130 103//125
f 106//131 103//131 105//131
f 106//132 107//132 109//132
f 106//133 108//133 107//133
f 105//134 108//134 106//134
f 110//135 106//135 109//135
f 110//136 104//136 106//136
f 112//137 110//138 111//139
f 111//139 110//138 109//140
f 113//141 104//136 110//136
f 112//137 113//137 110//138
f 115//142 113//143 112//144
f 116//145 114//146 113//141
f 113//141 114//146 104//136
f 115//142 116//147 113//143
f 115//148 117//149 116//150
f 116//151 117//152 119//153
f 116//145 118//145 114//146
f 116//151 119//153 118//151
f 117//152 120//154 119//153
f 120//131 121//131 119//131
f 119//131 121//131 118//131
f 121//155 122//156 124//155
f 121//155 123//155 122//156
f 120//131 123//131 121//131
f 124//157 125//157 121//157
f 126//131 121//131 125//131
f 121//131 126//131 118//131
f 126//131 95//131 97//131
f 126//131 125//131 95//131
f 118//131 126//131 99//131
f 126//131 97//131 99//131
f 94//120 95//120 125//120
f 124//157 94//157 125//157
f 124//158 122//159 127//160
f 124//158 127//160 128//158
f 128//161 94//161 124//161
f 129//162 92//162 128//162
f 128//163 130//163 129//163
f 128//161 92//161 94//161
f 128//163 127//163 130//163
f 130//164 131//164 133//164
f 130//164 132//164 131//164
f 132//165 130//163 127//163
f 130//164 134//164 129//164
f 130//164 133//164 134//164
f 136//166 134//166 135//166
f 137//167 135//168 134//168
f 129//169 134//169 136//169
f 137//167 134//168 133//170
f 137//171 138//171 139//171
f 133//170 138//172 137//167
f 137//171 139//171 53//171
f 53//171 135//171 137//171
f 53//84 139//173 48//85
f 48//174 139//174 37//174
f 139//175 38//175 37//176
f 139//175 138//175 38//175
f 131//177 38//177 138//177
f 133//170 131//178 138//172
f 129//169 136//169 91//169
f 91//179 136//179 88//179
f 88//180 136//181 140//180
f 136//166 135//166 140//166
f 88//180 140//180 64//180
f 140//182 54//182 56//182
f 140//182 135//182 54//182
f 64//90 140//90 56//90
f 53//171 54//171 135//171
f 131//183 132//183 143//183
f 132//184 141//184 143//184
f 132//185 142//185 141//185
f 132//165 127//163 142//186
f 31//187 143//188 141//187
f 35//53 143//53 31//53
f 131//183 143//183 35//183
f 142//189 144//189 141//189
f 142//189 145//190 144//189
f 142//191 122//159 145//191
f 142//191 127//160 122//159
f 146//192 144//192 145//192
f 145//193 123//155 146//194
f 145//193 122//156 123//155
f 146//195 26//195 27//195
f 146//196 19//196 26//196
f 146//197 27//197 144//197
f 19//131 146//131 123//131
f 141//198 144//198 29//198
f 27//47 29//47 144//199
f 31//187 141//187 29//200
f 131//201 35//201 38//201
f 129//162 91//162 92//162
f 19//131 123//131 120//131
f 117//152 15//154 120//154
f 15//154 19//154 120//154
f 114//131 118//131 99//131
f 115//148 12//149 117//149
f 12//19 15//21 117//19
f 13//202 115//202 112//203
f 13//14 12//16 115//14
f 104//131 114//131 99//131
f 147//204 112//204 111//204
f 13//202 112//203 147//203
f 147//204 111//204 149//205
f 148//206 147//206 149//206
f 148//206 150//206 147//206
f 150//207 13//207 147//207
f 148//208 151//209 150//209
f 150//207 152//207 13//207
f 150//210 151//210 153//211
f 150//210 153//211 152//211
f 9//212 153//213 8//212
f 9//212 152//213 153//213
f 8//214 153//215 154//216
f 151//217 154//218 153//219
f 155//220 154//221 58//221
f 8//214 154//216 155//222
f 156//223 58//224 154//224
f 151//217 156//225 154//218
f 157//226 158//227 156//223
f 159//228 157//228 156//229
f 156//223 158//227 58//224
f 159//228 156//229 151//229
f 160//230 159//231 148//208
f 160//230 161//232 159//231
f 161//233 157//228 159//228
f 148//208 159//231 151//209
f 160//234 162//234 161//234
f 161//235 162//236 163//235
f 161//235 163//235 164//237
f 161//233 164//233 157//228
f 164//238 165//239 166//240
f 165//241 164//241 163//241
f 164//238 166//240 157//226
f 166//78 165//78 167//78
f 157//226 166//240 158//227
f 69//78 158//78 166//78
f 166//78 167//78 69//78
f 165//242 169//242 167//242
f 167//243 168//243 74//243
f 167//244 169//244 168//244
f 68//94 167//245 74//246
f 68//94 69//94 167//245
f 170//247 168//247 169//247
f 171//248 170//248 169//248
f 165//242 171//242 169//242
f 165//249 163//249 171//249
f 171//250 172//250 173//250
f 171//250 163//251 172//250
f 171//248 173//252 170//248
f 174//253 173//253 172//253
f 173//254 174//254 175//254
f 173//254 175//254 170//254
f 176//255 175//255 177//255
f 175//256 176//256 178//256
f 175//257 178//257 170//257
f 174//258 177//258 175//258
f 168//259 178//259 77//259
f 170//247 178//260 168//247
f 79//261 77//261 178//261
f 79//261 178//261 176//262
f 179//263 177//263 181//263
f 177//264 179//264 182//264
f 176//255 177//255 180//255
f 177//265 182//265 180//265
f 174//258 181//258 177//258
f 183//266 182//266 184//266
f 180//267 182//268 183//267
f 185//269 184//269 182//269
f 185//269 182//269 179//269
f 185//270 186//270 108//271
f 185//270 179//272 186//270
f 105//273 184//273 185//273
f 105//274 185//274 108//274
f 179//275 181//275 186//275
f 181//276 187//276 186//276
f 186//277 107//277 108//278
f 186//277 187//277 107//277
f 188//279 107//279 187//279
f 189//280 188//281 187//280
f 189//280 187//280 190//282
f 181//283 190//283 187//283
f 190//284 181//284 174//284
f 190//285 174//285 191//285
f 189//286 190//286 191//286
f 191//287 172//288 162//287
f 174//289 172//289 191//289
f 189//286 191//286 192//286
f 191//287 162//287 192//290
f 193//291 192//291 160//291
f 160//292 192//292 162//292
f 193//293 189//293 192//293
f 193//294 188//294 189//294
f 193//295 194//295 188//295
f 149//296 194//296 193//296
f 193//206 160//206 148//206
f 193//206 148//206 149//206
f 109//297 188//298 194//299
f 111//139 109//140 194//300
f 149//205 111//204 194//301
f 109//297 107//302 188//298
f 101//303 183//303 184//303
f 101//303 184//303 102//303
f 105//304 102//304 184//304
f 180//267 183//267 80//305
f 81//306 80//306 183//306
f 81//307 183//307 101//307
f 79//308 180//308 80//308
f 79//308 176//308 180//308
f 162//309 172//309 163//309
f 74//101 168//101 77//101
f 62//78 58//78 158//78
f 69//78 62//78 158//78
f 155//220 58//221 51//83
f 50//82 155//220 51//83
f 6//310 155//311 50//310
f 6//310 8//312 155//311
f 9//17 13//17 152//17
f 81//110 101//313 83//109
f 91//179 88//179 89//179
f 88//314 64//314 66//314
f 88//314 66//314 72//315
f 62//78 59//78 58//78
f 3//316 50//310 46//316
f 3//316 6//310 50//310
f 48//317 37//317 40//317
f 23//318 44//318 33//318
f 44//69 4//319 2//69
f 21//320 4//320 44//320
f 21//320 44//320 23//320
f 23//321 33//321 24//321
f 19//322 18//322 26//322
f 5//323 4//323 21//323
f 10//324 5//324 16//324
f 195//325 196//325 197//325
f 195//325 197//325 198//325
f 199//326 200//326 201//326
f 199//327 201//327 202//327
f 203//328 204//329 205//330
f 203//328 205//330 206//331
f 196//332 207//332 208//332
f 196//333 208//333 197//333
f 209//334 210//334 211//335
f 209//334 211//335 212//336
f 207//337 213//337 214//337
f 207//338 214//338 208//338
f 215//339 199//340 202//341
f 215//339 202//341 216//342
f 210//343 217//343 218//343
f 210//343 218//343 211//343
f 213//344 203//344 206//344
f 213//345 206//345 214//345
f 200//346 219//346 220//346
f 200//347 220//347 201//347
f 219//348 195//348 198//348
f 219//349 198//349 220//349
f 221//350 222//350 223//350
f 221//350 223//350 224//350
f 225//351 226//352 218//353
f 225//351 218//353 217//351
f 204//334 209//334 212//336
f 204//334 212//336 205//354
f 215//351 216//355 226//352
f 215//351 226//352 225//351
f 227//356 228//356 229//356
f 227//356 229//356 230//356
f 218//357 231//357 232//357
f 218//357 232//357 211//357
f 211//358 232//359 233//360
f 211//361 233//362 212//363
f 234//364 235//364 236//364
f 234//364 236//364 237//364
f 238//365 234//365 237//365
f 238//366 237//367 239//368
f 240//369 236//369 235//369
f 240//370 235//371 241//372
f 242//371 241//372 235//371
f 242//373 235//373 231//373
f 232//374 234//374 238//374
f 232//359 238//375 233//360
f 231//376 235//376 234//376
f 231//376 234//376 232//376
f 243//377 244//378 245//378
f 243//377 245//378 246//379
f 246//380 245//381 247//380
f 246//380 247//380 248//382
f 248//383 247//384 249//385
f 248//383 249//385 250//386
f 250//387 249//387 251//387
f 250//387 251//387 252//387
f 253//388 254//389 255//390
f 253//388 255//390 256//391
f 256//392 255//393 257//392
f 256//392 257//392 258//394
f 258//395 257//396 259//397
f 258//395 259//397 260//398
f 260//399 259//399 261//399
f 260//399 261//399 262//399
f 254//389 263//400 264//401
f 254//389 264//401 255//390
f 255//402 264//403 265//402
f 255//402 265//402 257//402
f 257//404 265//405 266//405
f 257//404 266//405 259//404
f 259//406 266//406 267//406
f 259//406 267//406 261//406
f 268//407 243//377 246//379
f 268//407 246//379 269//408
f 269//409 246//409 248//409
f 269//409 248//409 270//410
f 270//411 248//412 250//412
f 270//411 250//412 271//411
f 271//413 250//413 252//413
f 271//413 252//413 272//413
f 268//414 233//362 238//366
f 268//414 238//366 243//415
f 267//416 272//416 252//416
f 267//416 252//416 261//416
f 198//417 197//417 272//417
f 198//417 272//417 267//417
f 205//418 212//363 233//362
f 205//418 233//362 268//414
f 242//419 263//420 254//421
f 242//419 254//421 241//422
f 239//368 244//368 243//415
f 239//368 243//415 238//366
f 251//423 262//423 261//423
f 251//423 261//423 252//423
f 241//422 254//421 253//422
f 241//422 253//422 240//424
f 265//425 201//425 220//425
f 265//426 220//426 266//426
f 266//427 220//427 198//427
f 266//428 198//428 267//428
f 264//429 202//429 201//429
f 264//403 201//430 265//402
f 271//431 272//431 197//431
f 271//432 197//432 208//432
f 270//433 271//433 208//433
f 270//434 208//434 214//434
f 263//435 216//435 202//435
f 263//400 202//436 264//401
f 269//409 270//410 214//437
f 269//438 214//438 206//438
f 263//420 242//419 226//439
f 263//420 226//439 216//440
f 268//407 269//408 206//441
f 268//442 206//442 205//442
f 231//443 218//353 226//352
f 231//444 226//444 242//444
f 253//445 256//446 258//445
f 258//445 260//445 262//445
f 262//445 251//445 249//445
f 249//445 247//446 245//445
f 245//445 244//447 239//445
f 239//445 273//445 274//445
f 275//445 276//445 240//445
f 245//445 239//445 274//445
f 275//445 240//445 253//445
f 245//445 274//445 275//445
f 262//445 249//445 245//445
f 253//445 258//445 262//445
f 245//445 275//445 253//445
f 262//445 245//445 253//445
f 276//445 273//445 239//445
f 239//445 237//445 236//445
f 236//445 240//445 276//445
f 239//445 236//445 276//445
f 276//448 277//448 278//448
f 276//448 278//448 273//448
f 273//449 278//450 279//451
f 273//449 279//451 274//452
f 274//453 279//453 280//453
f 274//453 280//453 275//453
f 275//454 280//455 277//456
f 275//454 277//456 276//457
f 279//445 278//445 277//445
f 279//445 277//445 280//445
f 230//458 229//458 224//458
f 224//458 223//458 281//458
f 281//458 282//458 283//458
f 283//458 284//458 285//458
f 285//458 286//458 287//458
f 287//458 288//458 230//458
f 230//458 224//458 281//458
f 281//458 283//458 285//458
f 285//458 287//458 230//458
f 281//458 285//458 230//458
f 282//458 281//458 289//458
f 282//458 289//458 290//458
f 291//459 292//459 289//459
f 291//459 289//459 281//459
f 293//460 294//460 288//460
f 293//460 288//460 287//460
f 295//461 296//461 282//461
f 295//461 282//461 290//461
f 297//462 298//462 284//462
f 297//462 284//462 283//462
f 292//463 295//463 290//463
f 292//463 290//463 289//463
f 294//464 227//464 230//464
f 294//464 230//464 288//464
f 299//465 300//465 286//465
f 299//465 286//465 285//465
f 300//466 293//466 287//466
f 300//466 287//466 286//466
f 228//467 221//467 224//467
f 228//467 224//467 229//467
f 222//459 291//459 281//459
f 222//459 281//459 223//459
f 298//468 299//468 285//468
f 298//468 285//468 284//468
f 296//461 297//461 283//461
f 296//461 283//461 282//461
f 209//469 204//470 297//470
f 209//469 297//470 296//469
f 203//471 213//472 299//472
f 203//471 299//472 298//473
f 215//474 225//475 291//475
f 215//474 291//475 222//474
f 200//476 199//477 221//477
f 200//476 221//477 228//476
f 207//478 196//479 293//480
f 207//478 293//480 300//481
f 213//482 207//483 300//484
f 213//482 300//484 299//485
f 195//486 219//487 227//488
f 195//486 227//488 294//489
f 217//490 210//490 295//490
f 217//490 295//490 292//490
f 204//491 203//492 298//493
f 204//491 298//493 297//494
f 210//495 209//469 296//469
f 210//495 296//469 295//495
f 196//496 195//497 294//496
f 196//496 294//496 293//496
f 225//475 217//498 292//498
f 225//475 292//498 291//475
f 219//499 200//500 228//501
f 219//499 228//501 227//502
f 199//503 215//504 222//505
f 199//503 222//505 221//506
f 301//1 302//1 304//1
f 301//2 303//2 302//2
f 301//3 306//4 303//5
f 305//6 301//6 304//6
f 305//7 307//7 301//7
f 301//3 307//8 306//4
f 307//8 308//9 306//4
f 307//8 309//10 308//9
f 307//7 310//7 309//7
f 307//7 311//7 310//7
f 305//7 311//7 307//7
f 311//12 312//18 313//507
f 311//324 305//324 312//324
f 310//11 311//12 313//507
f 313//20 312//23 314//508
f 313//20 314//508 315//21
f 316//509 313//20 315//21
f 310//11 313//507 316//11
f 316//509 315//21 317//509
f 318//14 310//15 316//16
f 319//148 316//149 317//510
f 318//14 316//16 319//14
f 319//148 317//510 320//150
f 318//202 319//202 321//203
f 319//147 320//147 322//511
f 319//147 322//511 321//143
f 321//512 322//512 323//513
f 320//145 324//514 322//515
f 322//515 325//136 323//136
f 322//515 324//514 325//136
f 323//136 325//136 326//136
f 326//131 325//131 327//131
f 325//131 324//131 328//131
f 325//131 328//131 327//131
f 324//131 329//131 328//131
f 328//516 329//517 331//518
f 328//516 331//518 330//519
f 327//520 328//521 330//522
f 331//523 332//524 334//523
f 331//523 333//525 332//524
f 335//526 333//527 331//528
f 331//529 334//529 336//530
f 335//526 331//528 329//531
f 331//529 336//530 330//532
f 337//533 330//532 336//530
f 338//534 337//535 336//536
f 338//534 336//536 339//537
f 334//538 339//537 336//536
f 340//539 342//540 339//541
f 334//538 340//538 339//537
f 341//246 338//246 339//541
f 341//246 339//541 342//540
f 340//539 343//539 342//540
f 342//78 343//78 345//78
f 341//78 342//78 344//78
f 342//78 345//78 344//78
f 346//78 345//78 343//78
f 346//78 349//78 345//78
f 347//220 345//221 349//83
f 347//220 348//221 345//221
f 350//223 345//224 348//224
f 350//223 344//227 345//224
f 351//228 350//229 352//542
f 351//228 353//228 350//229
f 352//543 350//217 348//219
f 353//226 344//227 350//223
f 354//233 353//228 351//228
f 354//233 355//233 353//228
f 355//544 356//240 353//226
f 353//226 356//240 344//227
f 356//78 357//78 341//78
f 356//78 358//78 357//78
f 355//544 358//239 356//240
f 341//78 344//78 356//78
f 358//249 359//249 360//249
f 358//241 355//241 359//241
f 358//545 360//545 361//545
f 358//546 361//546 357//546
f 357//547 361//547 362//547
f 363//548 362//548 361//549
f 360//550 363//550 361//550
f 364//551 366//551 363//551
f 360//550 364//552 363//550
f 363//548 365//553 362//548
f 366//554 365//554 363//554
f 364//555 367//555 366//555
f 367//258 369//258 366//258
f 366//556 368//556 365//556
f 368//557 366//557 369//557
f 367//258 371//258 369//258
f 368//558 369//558 370//558
f 370//559 369//559 371//559
f 373//284 371//284 367//284
f 371//276 372//276 374//276
f 371//283 373//283 372//283
f 370//560 371//560 374//560
f 374//277 372//277 375//277
f 374//277 375//277 376//278
f 377//561 374//562 376//563
f 377//561 370//564 374//562
f 380//565 377//565 376//565
f 378//566 377//566 380//566
f 378//567 379//567 377//567
f 379//568 370//569 377//570
f 380//134 376//134 326//134
f 327//571 378//571 380//571
f 326//131 327//131 380//131
f 378//572 381//572 379//572
f 379//573 365//573 368//574
f 379//573 381//575 365//573
f 379//568 368//576 370//569
f 362//577 365//577 381//577
f 382//578 362//578 381//578
f 382//578 381//578 383//578
f 378//579 383//579 381//579
f 384//580 383//580 378//580
f 384//581 337//533 383//582
f 337//535 382//583 383//584
f 327//520 384//585 378//585
f 337//533 384//581 330//532
f 327//520 330//522 384//585
f 338//586 357//586 382//586
f 357//587 362//587 382//587
f 337//535 338//534 382//583
f 326//133 376//133 375//133
f 385//279 375//279 372//279
f 386//297 375//302 385//298
f 326//132 375//132 386//132
f 388//139 386//140 387//300
f 386//297 385//298 387//299
f 323//135 326//135 386//135
f 388//139 323//513 386//140
f 390//205 388//588 387//301
f 321//512 323//513 388//139
f 389//204 388//588 390//205
f 389//204 321//204 388//588
f 390//296 387//296 391//296
f 391//206 392//206 390//206
f 392//206 389//206 390//206
f 392//208 351//231 352//209
f 394//230 351//231 392//208
f 392//208 352//209 393//209
f 392//206 393//206 389//206
f 391//206 394//206 392//206
f 394//589 395//589 354//589
f 394//292 396//292 395//292
f 391//291 396//291 394//291
f 394//230 354//232 351//231
f 397//287 395//287 396//290
f 398//286 397//286 396//286
f 391//293 398//293 396//293
f 398//280 385//281 372//280
f 391//590 385//590 398//590
f 398//280 372//280 373//282
f 398//286 373//286 397//286
f 373//285 367//285 397//285
f 367//289 399//289 397//289
f 397//287 399//591 395//287
f 395//309 399//309 359//309
f 360//250 359//250 399//250
f 360//250 399//250 364//250
f 367//592 364//592 399//592
f 354//235 395//236 359//235
f 393//207 400//207 318//207
f 393//210 401//211 400//211
f 393//210 352//210 401//211
f 393//207 318//207 389//207
f 309//212 401//213 308//212
f 309//212 400//213 401//213
f 308//593 401//215 348//215
f 352//543 348//219 401//219
f 309//17 318//17 400//17
f 391//295 387//295 385//295
f 318//202 321//203 389//203
f 354//235 359//235 355//237
f 338//246 341//246 357//246
f 402//78 349//78 346//78
f 402//78 404//78 349//78
f 403//82 349//83 404//80
f 403//82 347//220 349//83
f 405//594 404//80 407//81
f 405//594 403//82 404//80
f 404//78 406//78 407//78
f 404//78 402//78 406//78
f 407//75 408//75 405//75
f 407//76 409//76 408//76
f 407//595 410//595 409//595
f 407//596 406//596 410//596
f 406//597 411//597 410//597
f 412//598 410//598 411//598
f 409//599 410//599 412//599
f 412//598 411//598 413//598
f 414//600 412//600 413//600
f 415//601 412//601 414//601
f 409//599 412//599 415//602
f 409//66 415//66 416//66
f 417//603 416//603 415//603
f 415//604 414//604 417//604
f 419//318 418//318 417//318
f 417//68 418//68 416//68
f 419//321 417//321 420//321
f 417//52 421//52 420//52
f 417//52 414//52 421//52
f 422//605 421//605 414//605
f 422//606 423//606 421//606
f 423//607 420//608 421//607
f 424//609 423//609 422//610
f 424//609 425//611 423//609
f 425//612 426//613 423//614
f 423//615 426//615 420//615
f 426//39 428//39 427//40
f 420//38 426//38 427//38
f 426//39 429//42 428//39
f 425//612 429//616 426//613
f 430//322 428//322 429//322
f 431//196 430//196 429//196
f 431//617 429//617 425//617
f 433//618 431//618 432//618
f 432//619 431//619 425//619
f 430//131 431//131 433//131
f 433//620 432//621 435//621
f 430//131 433//131 434//131
f 434//131 433//131 335//131
f 433//620 333//527 335//526
f 433//620 435//621 333//527
f 435//622 432//622 436//622
f 435//623 436//624 437//625
f 437//625 333//525 435//623
f 437//626 438//627 439//628
f 437//626 436//626 438//627
f 439//628 332//629 437//626
f 437//625 332//524 333//525
f 402//173 440//630 439//173
f 439//173 406//173 402//173
f 439//628 440//631 332//629
f 439//632 438//632 406//632
f 402//173 346//633 440//630
f 340//634 440//630 346//633
f 334//635 332//629 440//631
f 334//635 440//631 340//636
f 406//637 438//637 411//637
f 438//638 441//638 411//639
f 438//638 436//640 441//638
f 411//641 441//641 413//641
f 432//642 441//642 436//642
f 432//643 424//643 441//643
f 424//644 413//644 441//645
f 317//646 315//154 434//154
f 315//154 430//154 434//154
f 317//646 434//154 442//647
f 434//131 335//131 442//131
f 320//151 317//646 442//647
f 320//151 442//647 443//151
f 442//131 329//131 443//131
f 442//131 335//131 329//131
f 320//145 443//145 324//514
f 324//131 443//131 329//131
f 432//648 425//648 424//648
f 315//29 314//29 430//29
f 430//27 314//27 428//27
f 444//649 427//649 428//649
f 314//24 444//25 428//26
f 314//24 312//30 444//25
f 305//31 444//31 312//31
f 445//33 427//33 444//34
f 305//32 445//32 444//32
f 445//320 304//320 418//320
f 305//323 304//323 445//323
f 445//320 418//320 419//320
f 445//33 419//36 427//33
f 420//37 427//37 419//37
f 424//644 422//650 413//644
f 414//651 413//651 422//651
f 418//69 302//69 416//70
f 418//69 304//319 302//69
f 302//71 408//71 416//71
f 409//66 416//66 408//66
f 303//72 408//72 302//73
f 303//72 405//74 408//72
f 303//316 403//652 405//316
f 306//310 347//653 403//652
f 303//316 306//310 403//652
f 308//593 348//215 347//214
f 306//310 308//654 347//653
f 340//634 346//633 343//634
f 309//17 310//17 318//17
