# Blender 5.2.2 LTS
# www.blender.org
mtllib 刀.mtl
o 刀
v -1.390594 0.289568 -0.021361
v -1.340337 0.293653 0.053535
v -1.390594 0.289568 0.054289
v -1.340337 0.293653 -0.020606
v -1.260687 0.291714 -0.020544
v -1.297922 0.000424 -0.024834
v -1.297922 0.000424 0.057762
v -1.250336 0.000424 0.057581
v -1.260687 0.291714 0.053473
v -1.153044 0.294369 0.053670
v -1.117941 0.000424 0.057774
v -1.238552 0.000424 0.037958
v -1.238552 0.000424 -0.006069
v -1.250336 0.000424 -0.024652
v -1.173578 0.000424 -0.006020
v -1.228968 0.049320 0.031471
v -1.228968 0.049320 0.000417
v -1.183089 0.049320 0.000417
v -1.183089 0.049320 0.031471
v -1.173580 0.000424 0.037907
v -1.111818 0.000424 -0.023761
v -1.117941 0.000424 -0.024846
v -1.106627 0.000424 -0.020656
v -1.103159 0.000424 -0.016001
v -1.146920 0.294520 -0.019659
v -1.141728 0.294648 -0.016556
v -1.101941 0.000424 0.043435
v -1.137041 0.294764 -0.006409
v -1.137041 0.294764 0.039337
v -1.106627 0.000424 0.053584
v -1.103159 0.000424 0.048930
v -1.138259 0.294734 0.044831
v -1.101941 0.000424 -0.010507
v -1.141728 0.294648 0.049484
v -1.142316 0.299354 0.049424
v -1.138835 0.299439 0.044771
v -1.137613 0.299469 0.039277
v -1.177361 0.574714 0.044958
v -1.173880 0.574934 0.040305
v -1.178103 0.579782 0.044870
v -1.174601 0.580004 0.040217
v -1.172658 0.575012 0.034811
v -1.173371 0.580082 -0.001795
v -1.172658 0.575012 -0.001883
v -1.173371 0.580082 0.034724
v -1.244151 0.868602 0.035178
v -1.242867 0.868618 0.029688
v -1.242867 0.868618 0.003240
v -1.244151 0.868602 -0.002250
v -1.244815 0.873924 0.003348
v -1.174601 0.580004 -0.007289
v -1.178103 0.579782 -0.011942
v -1.177361 0.574714 -0.012030
v -1.173880 0.574934 -0.007377
v -1.142316 0.299354 -0.016495
v -1.138835 0.299439 -0.011842
v -1.138259 0.294734 -0.011903
v -1.137613 0.299469 -0.006348
v -1.147524 0.299225 -0.019599
v -1.153669 0.299074 -0.020681
v -1.182570 0.574384 -0.015133
v -1.153044 0.294369 -0.020741
v -1.260687 0.295842 -0.020482
v -1.279526 0.567615 -0.016037
v -1.415110 0.565436 -0.016562
v -1.381343 0.570495 -0.015975
v -1.280305 0.572685 -0.015948
v -1.188715 0.573995 -0.016215
v -1.183345 0.579451 -0.015045
v -1.189528 0.579060 -0.016127
v -1.349679 0.864093 -0.010531
v -1.253283 0.868482 -0.009981
v -1.259740 0.868398 -0.011045
v -1.255334 0.873786 -0.009873
v -1.261854 0.873702 -0.010937
v -1.351093 0.869583 -0.010426
v -1.468048 0.867392 -0.010890
v -1.425318 1.137665 -0.005065
v -1.568009 1.135488 -0.005065
v -1.528263 1.143262 -0.005065
v -1.427508 1.145453 -0.005065
v -1.356380 1.133423 -0.005065
v -1.352578 1.140834 -0.003971
v -1.359260 1.141021 -0.005065
v -1.349763 1.133237 -0.003971
v -1.346913 1.140676 -0.000858
v -1.344152 1.133080 -0.000858
v -1.343128 1.140570 0.003801
v -1.340403 1.132975 0.003801
v -1.249806 0.873859 -0.006785
v -1.247809 0.868554 -0.006893
v -1.246112 0.873907 -0.002142
v -1.339087 1.132938 0.009297
v -1.244815 0.873924 0.029580
v -1.341799 1.140533 0.009297
v -1.339087 1.132938 0.023631
v -1.340403 1.132975 0.029127
v -1.343128 1.140570 0.029127
v -1.341799 1.140533 0.023631
v -1.443496 1.285692 0.029127
v -1.442541 1.286494 0.009297
v -1.442541 1.286494 0.023632
v -1.607963 1.406638 0.009297
v -1.606766 1.404907 0.029128
v -1.607963 1.406638 0.023632
v -1.653569 1.423300 0.029128
v -1.654294 1.424920 0.023632
v -1.654294 1.424920 0.009297
v -1.653569 1.423300 0.003801
v -1.648413 1.411777 0.036900
v -1.606766 1.404907 0.003801
v -1.644767 1.403629 -0.005065
v -1.651504 1.418684 -0.000858
v -1.598259 1.392594 -0.003971
v -1.648413 1.411777 -0.003971
v -1.603359 1.399974 -0.000858
v -1.446214 1.283412 -0.000858
v -1.450282 1.279997 -0.003971
v -1.455080 1.275971 -0.005065
v -1.592244 1.383887 -0.005065
v -1.443496 1.285692 0.003801
v -1.528263 1.143262 0.037993
v -1.568009 1.135488 0.037993
v -1.427508 1.145453 0.037993
v -1.644767 1.403629 0.037993
v -1.592244 1.383887 0.037993
v -1.598259 1.392594 0.036900
v -1.450282 1.279997 0.036900
v -1.446214 1.283412 0.033787
v -1.603359 1.399974 0.033787
v -1.651504 1.418684 0.033787
v -1.346913 1.140676 0.033787
v -1.352578 1.140834 0.036900
v -1.344152 1.133080 0.033787
v -1.249806 0.873859 0.039713
v -1.349763 1.133237 0.036900
v -1.246112 0.873907 0.035071
v -1.356380 1.133423 0.037993
v -1.255334 0.873786 0.042801
v -1.359260 1.141021 0.037993
v -1.425318 1.137665 0.037993
v -1.455080 1.275971 0.037993
v -1.351093 0.869583 0.043355
v -1.489278 0.861913 0.044237
v -1.468048 0.867392 0.043819
v -1.349679 0.864093 0.043459
v -1.261854 0.873702 0.043865
v -1.253283 0.868482 0.042910
v -1.259740 0.868398 0.043973
v -1.183345 0.579451 0.047974
v -1.189528 0.579060 0.049055
v -1.280305 0.572685 0.048876
v -1.415110 0.565436 0.049491
v -1.381343 0.570495 0.048904
v -1.279526 0.567615 0.048965
v -1.188715 0.573995 0.049143
v -1.260687 0.295842 0.053410
v -1.153669 0.299074 0.053609
v -1.146920 0.294520 0.052588
v -1.147524 0.299225 0.052527
v -1.182570 0.574384 0.048062
v -1.111818 0.000424 0.056690
v -1.489278 0.861913 -0.011309
v -1.247809 0.868554 0.039821
vn -0.0810 0.9967 -0.0000
vn -0.9523 -0.3052 -0.0000
vn 0.0040 0.1336 -0.9910
vn 0.0057 0.0140 -0.9999
vn 0.0061 0.0140 -0.9999
vn 0.0035 0.0130 -0.9999
vn -0.0000 -1.0000 -0.0000
vn 0.0041 0.0157 0.9999
vn 0.0045 0.0143 0.9999
vn 0.0038 0.0132 0.9999
vn -0.0017 0.0137 0.9999
vn -0.0018 0.0128 0.9999
vn -0.0015 0.0138 0.9999
vn 0.9813 -0.1923 -0.0000
vn -0.0004 -0.1310 0.9914
vn -0.0007 -0.1314 0.9913
vn -0.0000 -0.1305 0.9914
vn -0.9816 -0.1909 -0.0000
vn -0.0004 -0.1311 -0.9914
vn -0.0005 -0.1310 -0.9914
vn -0.0008 -0.1306 -0.9914
vn -0.0000 -0.1315 -0.9913
vn 0.1735 0.0344 -0.9842
vn 0.1734 0.0346 -0.9842
vn 0.1744 0.0345 -0.9841
vn 0.5109 0.0729 -0.8565
vn 0.5115 0.0733 -0.8562
vn 0.5120 0.0730 -0.8559
vn 0.5100 0.0760 -0.8568
vn 0.9930 0.1184 -0.0000
vn 0.9930 0.1183 -0.0000
vn 0.9927 0.1207 -0.0000
vn 0.9694 0.1186 0.2150
vn 0.9693 0.1186 0.2153
vn 0.9689 0.1210 0.2159
vn 0.9694 0.1186 0.2149
vn 0.9693 0.1186 -0.2152
vn 0.9694 0.1187 -0.2150
vn 0.9694 0.1186 -0.2149
vn 0.7973 0.1038 0.5946
vn 0.7968 0.1033 0.5953
vn 0.7959 0.1063 0.5960
vn 0.7958 0.1060 0.5962
vn 0.7937 0.1103 0.5982
vn 0.9689 0.1209 0.2159
vn 0.9679 0.1265 0.2170
vn 0.9680 0.1267 0.2164
vn 0.7944 0.1107 0.5973
vn 0.7933 0.1106 0.5987
vn 0.9679 0.1266 0.2171
vn 0.7900 0.1232 0.6006
vn 0.7914 0.1262 0.5981
vn 0.7911 0.1265 0.5985
vn 0.7901 0.1228 0.6005
vn 0.9659 0.1404 0.2175
vn 0.9659 0.1411 0.2169
vn 0.9659 0.1403 0.2176
vn 0.9920 0.1261 -0.0000
vn 0.9920 0.1262 -0.0000
vn 0.9903 0.1392 -0.0000
vn 0.9903 0.1393 -0.0000
vn 0.9659 0.1395 0.2183
vn 0.9480 0.2322 0.2175
vn 0.9474 0.2321 0.2203
vn 0.9470 0.2320 0.2222
vn 0.9484 0.2323 0.2157
vn 0.9722 0.2342 -0.0000
vn 0.9474 0.2321 -0.2203
vn 0.9470 0.2321 -0.2222
vn 0.9480 0.2322 -0.2175
vn 0.9148 0.3414 -0.2160
vn 0.9147 0.3416 -0.2160
vn 0.9153 0.3404 -0.2151
vn 0.9387 0.3446 -0.0000
vn 0.9387 0.3447 -0.0000
vn 0.9388 0.3446 -0.0000
vn 0.9485 0.2322 -0.2156
vn 0.7786 0.1980 -0.5955
vn 0.7897 0.1260 -0.6004
vn 0.7921 0.1212 -0.5982
vn 0.7918 0.1230 -0.5982
vn 0.7948 0.1111 -0.5966
vn 0.9657 0.1411 -0.2182
vn 0.7937 0.1102 -0.5982
vn 0.7959 0.1058 -0.5962
vn 0.9664 0.1377 -0.2170
vn 0.9662 0.1396 -0.2169
vn 0.9681 0.1266 -0.2162
vn 0.9679 0.1264 -0.2172
vn 0.7959 0.1065 -0.5960
vn 0.7972 0.1037 -0.5947
vn 0.9689 0.1211 -0.2159
vn 0.9689 0.1210 -0.2160
vn 0.9927 0.1208 -0.0000
vn 0.7969 0.1033 -0.5952
vn 0.7976 0.1034 -0.5942
vn 0.5075 0.0782 -0.8581
vn 0.5089 0.0791 -0.8572
vn 0.5095 0.0753 -0.8572
vn 0.1712 0.0375 -0.9845
vn 0.1723 0.0381 -0.9843
vn 0.1726 0.0351 -0.9844
vn 0.1728 0.0351 -0.9843
vn 0.5045 0.0908 -0.8586
vn -0.0017 0.0137 -0.9999
vn -0.0022 0.0143 -0.9999
vn -0.0021 0.0137 -0.9999
vn -0.0028 0.0158 -0.9999
vn 0.0022 0.0151 -0.9999
vn 0.0007 0.0146 -0.9999
vn 0.0036 0.0159 -0.9999
vn 0.0022 0.1005 -0.9949
vn 0.0034 0.0170 -0.9999
vn -0.0031 0.0170 -0.9999
vn -0.0032 0.0168 -0.9999
vn 0.1704 0.0423 -0.9845
vn 0.1706 0.0432 -0.9844
vn 0.1695 0.0443 -0.9845
vn 0.1622 0.0551 -0.9852
vn 0.1692 0.0462 -0.9845
vn -0.0053 0.0166 -0.9998
vn -0.0012 0.0179 -0.9998
vn -0.0065 0.0174 -0.9998
vn 0.1665 0.0576 -0.9844
vn 0.1616 0.0565 -0.9852
vn 0.1601 0.0830 -0.9836
vn 0.1593 0.0832 -0.9837
vn 0.1610 0.0823 -0.9835
vn 0.1627 0.0824 -0.9832
vn -0.0065 0.0178 -0.9998
vn -0.0018 0.0211 -0.9998
vn 0.0012 0.0198 -0.9998
vn -0.0028 0.0185 -0.9998
vn -0.0003 0.0216 -0.9998
vn -0.0000 -0.0000 -1.0000
vn 0.0014 0.0231 -0.9997
vn 0.1648 0.0822 -0.9829
vn 0.1609 0.0809 -0.9836
vn 0.1629 0.0613 -0.9847
vn 0.1636 0.0606 -0.9847
vn 0.1645 0.0610 -0.9845
vn 0.1629 0.0618 -0.9847
vn 0.4783 0.1774 -0.8601
vn 0.4813 0.1755 -0.8588
vn 0.4814 0.1750 -0.8589
vn 0.4778 0.1770 -0.8605
vn 0.4802 0.1958 -0.8550
vn 0.4800 0.1942 -0.8555
vn 0.4776 0.1934 -0.8570
vn 0.7501 0.2723 -0.6026
vn 0.7498 0.2726 -0.6029
vn 0.7527 0.2704 -0.6002
vn 0.7531 0.2702 -0.5999
vn 0.7499 0.2868 -0.5961
vn 0.7496 0.2865 -0.5967
vn 0.7487 0.2862 -0.5979
vn 0.4776 0.2008 -0.8553
vn 0.4797 0.1984 -0.8547
vn 0.4796 0.1980 -0.8548
vn 0.7503 0.2893 -0.5945
vn 0.7486 0.2923 -0.5951
vn 0.7504 0.2895 -0.5942
vn 0.9157 0.3384 -0.2170
vn 0.9155 0.3383 -0.2176
vn 0.9186 0.3286 -0.2195
vn 0.9397 0.3421 -0.0000
vn 0.9397 0.3420 -0.0000
vn 0.9190 0.3282 -0.2183
vn 0.9418 0.3363 -0.0000
vn 0.9156 0.3381 0.2174
vn 0.9156 0.3383 0.2172
vn 0.9186 0.3290 0.2191
vn 0.9187 0.3295 0.2180
vn 0.9187 0.3281 0.2199
vn 0.8028 0.5541 0.2204
vn 0.8072 0.5583 0.1914
vn 0.8230 0.5680 -0.0000
vn 0.5759 0.7887 0.2152
vn 0.5877 0.8091 -0.0000
vn 0.5830 0.8027 0.1258
vn 0.3671 0.9302 -0.0000
vn 0.3579 0.9082 0.2171
vn 0.3578 0.9094 0.2120
vn 0.3577 0.9102 0.2087
vn 0.3580 0.9074 0.2203
vn -0.9128 -0.4085 -0.0000
vn -0.9128 -0.4084 -0.0000
vn -0.9129 -0.4082 -0.0001
vn 0.3574 0.9083 -0.2173
vn 0.3568 0.9078 -0.2205
vn 0.3584 0.9092 -0.2117
vn 0.3590 0.9098 -0.2084
vn 0.1906 0.4904 -0.8504
vn 0.1797 0.4699 -0.8642
vn -0.9128 -0.4084 -0.0002
vn 0.2880 0.7410 -0.6066
vn 0.2971 0.7560 -0.5832
vn 0.5503 0.7419 -0.3831
vn 0.3075 0.4145 -0.8565
vn 0.4513 0.5931 -0.6667
vn 0.4150 0.2914 -0.8619
vn 0.1067 0.1403 -0.9843
vn 0.1407 0.0999 -0.9850
vn 0.1636 0.1149 -0.9798
vn 0.2044 0.2598 -0.9438
vn 0.0608 0.1611 -0.9851
vn 0.0631 0.1657 -0.9842
vn 0.0643 0.1680 -0.9837
vn 0.0598 0.1591 -0.9855
vn 0.6541 0.4550 -0.6043
vn 0.4742 0.6494 -0.5944
vn 0.4628 0.3220 -0.8259
vn 0.5851 0.8013 -0.1249
vn 0.5739 0.7902 -0.2150
vn 0.8022 0.5548 -0.2204
vn 0.6879 0.4758 -0.5481
vn -0.1920 0.9814 -0.0000
vn -0.0000 -0.0000 1.0000
vn -0.9128 -0.4083 -0.0005
vn 0.0615 0.1615 0.9850
vn 0.0622 0.1648 0.9844
vn 0.0627 0.1668 0.9840
vn 0.0610 0.1595 0.9853
vn 0.1911 0.2511 0.9489
vn 0.3119 0.4099 0.8572
vn 0.4367 0.5887 0.6802
vn 0.1869 0.4886 0.8522
vn 0.5429 0.7436 0.3902
vn 0.4788 0.6455 0.5951
vn 0.2937 0.7557 0.5854
vn 0.1830 0.4709 0.8630
vn 0.2912 0.7410 0.6051
vn -0.9127 -0.4086 -0.0003
vn 0.4163 0.2897 0.8618
vn 0.6554 0.4533 0.6041
vn 0.6871 0.4780 0.5472
vn 0.4624 0.3247 0.8251
vn 0.4811 0.1780 0.8584
vn 0.4783 0.1739 0.8608
vn 0.4780 0.1737 0.8610
vn 0.7524 0.2735 0.5992
vn 0.7488 0.2857 0.5980
vn 0.7520 0.2756 0.5988
vn 0.7505 0.2693 0.6035
vn 0.7487 0.2920 0.5951
vn 0.7492 0.2867 0.5971
vn 0.4776 0.1934 0.8570
vn 0.4788 0.1942 0.8562
vn 0.4800 0.1943 0.8555
vn 0.4812 0.1783 0.8583
vn 0.7500 0.2931 0.5929
vn 0.9147 0.3416 0.2162
vn 0.9147 0.3424 0.2149
vn 0.9148 0.3414 0.2160
vn 0.1610 0.0809 0.9836
vn 0.1626 0.0816 0.9833
vn 0.1647 0.0823 0.9829
vn 0.1645 0.0621 0.9844
vn 0.1644 0.0623 0.9844
vn 0.1632 0.0603 0.9848
vn 0.4778 0.2003 0.8553
vn 0.1628 0.0603 0.9848
vn 0.1635 0.1161 0.9797
vn 0.1085 0.1379 0.9845
vn 0.1412 0.0991 0.9850
vn 0.0033 0.0221 0.9998
vn -0.0048 0.0202 0.9998
vn 0.0010 0.0201 0.9998
vn 0.0028 0.0224 0.9997
vn 0.0011 0.0177 0.9998
vn -0.0067 0.0181 0.9998
vn 0.0027 0.0655 0.9978
vn 0.0035 0.0230 0.9997
vn -0.0065 0.0176 0.9998
vn -0.0044 0.0171 0.9998
vn 0.1601 0.0831 0.9836
vn 0.1601 0.0829 0.9836
vn 0.1608 0.0841 0.9834
vn -0.0034 0.0204 0.9998
vn 0.1664 0.0577 0.9844
vn 0.1635 0.0569 0.9849
vn 0.1615 0.0563 0.9853
vn 0.1684 0.0581 0.9840
vn -0.0031 0.0168 0.9999
vn 0.0018 0.0173 0.9998
vn -0.0032 0.0170 0.9999
vn -0.0026 0.1323 0.9912
vn -0.0001 0.0160 0.9999
vn -0.0026 0.0161 0.9999
vn -0.0018 0.0179 0.9998
vn -0.0022 0.0155 0.9999
vn 0.0012 0.0152 0.9999
vn -0.0051 0.2423 0.9702
vn 0.1727 0.0352 0.9843
vn 0.1728 0.0355 0.9843
vn 0.1712 0.0375 0.9845
vn 0.1739 0.0347 0.9842
vn 0.1723 0.0382 0.9843
vn 0.5097 0.0755 0.8571
vn 0.5117 0.0733 0.8560
vn 0.5097 0.0758 0.8570
vn 0.5073 0.0781 0.8582
vn 0.5084 0.0790 0.8575
vn 0.1702 0.0438 0.9844
vn 0.1699 0.0438 0.9845
vn 0.5033 0.0890 0.8595
vn 0.5043 0.0904 0.8588
vn 0.1694 0.0430 0.9846
vn 0.1737 0.0345 0.9842
vn 0.5110 0.0729 0.8565
vn 0.5121 0.0731 0.8558
vn 0.1742 0.0345 0.9841
vn -0.1482 0.9890 -0.0000
vn -0.9377 -0.3473 -0.0000
vn -0.2499 0.9683 -0.0000
vn 0.0047 0.0583 -0.9983
vn 0.0053 0.0180 -0.9998
vn -0.9642 -0.2653 -0.0000
vn 0.5034 0.0886 0.8595
vn 0.4985 0.1356 0.8562
vn 0.4858 0.1324 0.8640
vn 0.4792 0.2029 0.8539
vn 0.4796 0.2021 0.8539
vn 0.7785 0.1983 0.5954
vn 0.7693 0.1960 0.6081
vn 0.7493 0.2941 0.5934
vn -0.9370 -0.3494 -0.0000
vn 0.8078 0.5575 -0.1916
vn 0.9182 0.3294 -0.2198
vn 0.7692 0.1963 -0.6081
vn 0.4984 0.1353 -0.8563
vn 0.4857 0.1327 -0.8640
vn 0.5029 0.0918 -0.8594
vn 0.5031 0.0917 -0.8594
vn 0.7976 0.1034 0.5943
vn 0.0011 0.0141 -0.9999
s 1
f 1//1 2//1 4//1
f 1//1 3//1 2//1
f 7//2 3//2 1//2
f 5//3 1//3 4//3
f 6//4 1//5 5//6
f 7//2 1//2 6//2
f 8//7 7//7 6//7
f 8//8 3//9 7//10
f 8//8 10//11 9//12
f 8//8 9//12 3//9
f 8//8 11//13 10//11
f 11//7 8//7 12//7
f 13//7 12//7 8//7
f 8//7 6//7 13//7
f 6//7 14//7 13//7
f 15//7 13//7 14//7
f 13//14 16//14 12//14
f 15//15 17//15 13//16
f 13//14 17//14 16//14
f 15//15 18//17 17//15
f 18//7 16//7 17//7
f 19//18 18//18 15//18
f 18//7 19//7 16//7
f 12//19 19//20 20//21
f 12//19 16//22 19//20
f 19//18 15//18 20//18
f 11//7 12//7 20//7
f 11//7 20//7 15//7
f 15//7 14//7 21//7
f 11//7 15//7 21//7
f 14//7 22//7 21//7
f 22//23 25//24 21//25
f 21//7 23//7 24//7
f 21//26 26//27 23//28
f 21//7 24//7 27//7
f 21//26 25//29 26//27
f 21//7 27//7 11//7
f 27//30 28//31 29//32
f 27//30 33//30 28//31
f 32//33 27//34 29//35
f 27//7 30//7 11//7
f 27//7 31//7 30//7
f 32//33 31//36 27//34
f 24//7 33//7 27//7
f 24//37 28//38 33//39
f 34//40 31//41 32//42
f 35//43 34//40 32//42
f 35//43 32//42 36//44
f 36//45 32//33 29//35
f 36//45 29//35 37//46
f 39//47 36//45 37//46
f 38//48 36//44 39//49
f 38//48 35//43 36//44
f 39//47 37//46 42//50
f 40//51 38//52 39//53
f 40//51 39//53 41//54
f 41//55 39//56 42//57
f 37//58 44//59 42//60
f 43//60 42//60 44//59
f 43//60 45//61 42//60
f 41//55 42//57 45//62
f 46//63 45//64 47//65
f 46//63 41//66 45//64
f 45//67 48//67 47//67
f 45//67 43//67 48//67
f 51//68 49//69 48//70
f 49//71 50//72 48//73
f 50//74 47//75 48//76
f 51//68 48//70 43//77
f 52//78 49//78 51//78
f 53//79 52//79 51//79
f 53//80 51//81 54//82
f 54//83 51//83 43//83
f 55//84 53//80 54//82
f 55//84 54//82 56//85
f 54//86 43//87 44//88
f 56//89 54//86 44//88
f 26//90 55//84 56//85
f 26//90 56//85 57//91
f 57//92 56//89 58//93
f 56//89 44//88 58//93
f 57//92 58//93 28//38
f 58//94 29//32 28//31
f 37//58 58//94 44//59
f 58//94 37//58 29//32
f 23//95 26//90 57//91
f 24//37 57//92 28//38
f 23//95 57//91 24//96
f 59//97 53//98 55//99
f 25//29 59//97 55//99
f 25//29 55//99 26//27
f 60//100 61//101 59//102
f 62//103 60//100 59//102
f 62//103 59//102 25//24
f 59//97 61//104 53//98
f 63//105 62//106 5//6
f 22//107 5//6 62//106
f 63//105 60//108 62//106
f 22//23 62//103 25//24
f 4//109 64//110 63//105
f 5//6 4//109 63//105
f 60//108 63//105 64//110
f 4//109 65//111 64//110
f 64//112 65//112 66//112
f 64//110 66//113 67//114
f 67//114 68//115 64//110
f 60//108 64//110 68//115
f 60//100 68//116 61//101
f 68//116 69//117 61//101
f 68//118 70//119 69//120
f 67//114 70//121 68//115
f 70//121 71//122 73//123
f 70//121 67//114 71//122
f 70//119 72//124 69//120
f 70//119 73//125 72//124
f 73//126 74//127 72//128
f 73//126 75//129 74//127
f 76//130 75//131 73//123
f 76//130 73//123 71//122
f 77//132 78//133 76//130
f 71//122 77//132 76//130
f 75//131 76//130 78//133
f 77//132 79//134 78//133
f 78//135 79//135 80//135
f 78//135 80//135 81//135
f 81//135 82//135 78//135
f 75//131 78//133 82//136
f 75//129 82//137 85//138
f 82//139 83//140 85//141
f 82//139 84//142 83//140
f 81//135 84//135 82//135
f 85//143 86//144 87//145
f 85//143 83//146 86//144
f 74//147 85//148 87//149
f 75//129 85//138 74//127
f 87//150 86//151 88//152
f 87//150 88//152 89//153
f 90//154 87//155 89//156
f 74//147 87//149 90//157
f 72//158 74//147 90//157
f 72//158 90//157 91//159
f 91//160 90//154 92//161
f 90//154 89//156 92//161
f 91//160 92//161 49//162
f 49//71 92//163 50//72
f 92//163 93//164 50//72
f 92//163 89//165 93//164
f 94//166 50//74 93//167
f 89//165 95//168 93//164
f 94//166 93//167 96//169
f 95//169 96//169 93//167
f 97//170 94//171 96//172
f 98//173 97//170 96//172
f 95//169 99//169 96//169
f 98//173 96//172 99//174
f 100//175 99//175 102//175
f 100//176 98//176 99//176
f 99//177 101//177 102//177
f 99//177 95//177 101//177
f 104//178 100//178 102//178
f 102//179 103//179 105//179
f 102//179 101//179 103//179
f 104//180 102//180 105//180
f 107//181 105//181 103//181
f 105//182 106//183 104//184
f 105//182 107//185 106//183
f 107//181 103//181 108//181
f 106//186 107//186 108//187
f 108//187 109//188 113//186
f 111//189 109//190 108//191
f 111//189 108//191 103//192
f 110//187 106//186 108//187
f 108//187 112//187 110//187
f 108//187 113//186 112//187
f 114//193 113//193 116//193
f 114//194 115//194 113//194
f 113//186 115//195 112//187
f 116//196 113//196 109//196
f 116//197 109//197 111//197
f 111//198 117//198 116//198
f 116//199 117//199 118//199
f 116//200 118//200 114//200
f 117//201 83//201 118//201
f 114//202 118//202 119//202
f 118//203 84//203 119//203
f 118//204 83//204 84//204
f 114//205 119//205 120//205
f 84//135 120//135 119//135
f 120//206 115//207 114//208
f 120//206 112//209 115//207
f 80//135 112//135 120//135
f 84//135 81//135 120//135
f 80//135 120//135 81//135
f 121//210 86//210 117//210
f 111//211 121//211 117//211
f 117//212 86//212 83//212
f 103//213 121//213 111//213
f 103//214 101//214 121//214
f 101//215 88//215 121//215
f 121//216 88//216 86//216
f 112//187 122//187 110//187
f 112//187 80//187 122//187
f 79//217 122//217 80//217
f 79//217 123//217 122//217
f 124//218 122//218 123//218
f 124//218 125//218 122//218
f 122//187 125//219 110//187
f 124//218 126//218 125//218
f 127//220 125//221 126//222
f 127//220 110//223 125//221
f 126//224 128//224 127//224
f 127//225 128//225 129//225
f 127//226 129//226 130//226
f 130//227 110//227 127//227
f 130//228 100//228 104//228
f 130//229 129//229 100//229
f 104//230 131//230 130//230
f 130//231 131//231 110//231
f 104//232 106//232 131//232
f 110//187 131//233 106//186
f 128//234 132//234 129//234
f 129//235 98//235 100//235
f 129//236 132//236 98//236
f 128//237 133//237 132//237
f 133//238 134//239 132//240
f 132//241 134//242 97//243
f 132//244 97//244 98//244
f 134//242 135//245 137//246
f 136//247 135//248 134//249
f 133//238 136//250 134//239
f 134//242 137//246 97//243
f 135//245 46//251 137//246
f 137//252 46//253 47//254
f 137//252 47//254 94//171
f 97//170 137//252 94//171
f 138//255 139//256 136//257
f 140//258 138//259 136//260
f 136//247 139//261 135//248
f 140//258 136//260 133//262
f 141//218 140//218 124//218
f 141//218 138//218 140//218
f 124//218 140//218 142//218
f 142//263 140//263 133//263
f 124//218 142//218 126//218
f 126//264 142//264 128//264
f 142//265 133//265 128//265
f 143//266 138//267 141//268
f 143//266 141//268 123//269
f 124//218 123//218 141//218
f 143//266 144//270 146//271
f 143//272 145//272 144//272
f 143//266 123//269 145//273
f 146//271 147//274 143//266
f 143//266 147//274 138//267
f 146//271 149//275 147//274
f 147//276 148//277 139//256
f 147//276 149//278 148//277
f 138//255 147//276 139//256
f 152//279 149//275 146//271
f 149//280 150//281 148//282
f 149//280 151//283 150//281
f 152//279 151//284 149//275
f 152//279 153//285 155//286
f 152//287 154//287 153//287
f 152//279 144//270 154//288
f 155//286 151//284 152//279
f 152//279 146//271 144//270
f 155//286 156//289 151//284
f 157//290 156//289 155//286
f 157//290 155//286 153//285
f 9//12 158//291 157//290
f 157//290 3//9 9//12
f 157//290 153//285 2//292
f 157//290 158//291 156//289
f 157//293 2//293 3//293
f 158//294 159//295 160//296
f 158//294 10//297 159//295
f 9//12 10//11 158//291
f 156//298 158//294 160//296
f 160//299 159//300 34//301
f 160//299 34//301 35//302
f 161//303 160//299 35//302
f 156//298 160//296 161//304
f 151//305 156//298 161//304
f 150//306 161//303 38//307
f 151//305 161//304 150//308
f 161//303 35//302 38//307
f 10//297 162//309 159//295
f 159//300 30//310 34//301
f 159//300 162//311 30//310
f 10//297 11//312 162//309
f 30//7 162//7 11//7
f 65//313 154//313 66//313
f 65//313 153//313 154//313
f 154//314 163//314 66//314
f 154//314 144//314 163//314
f 163//315 145//315 77//315
f 163//315 144//315 145//315
f 71//316 163//316 77//316
f 66//113 163//317 71//122
f 2//318 153//318 65//318
f 150//306 38//307 40//319
f 148//320 150//320 40//320
f 148//321 40//321 164//321
f 139//261 148//322 164//323
f 164//324 40//324 41//324
f 139//261 164//323 135//248
f 164//325 41//325 46//325
f 135//245 164//326 46//251
f 145//327 79//327 77//327
f 145//327 123//327 79//327
f 101//328 95//328 88//328
f 89//165 88//329 95//168
f 50//74 94//166 47//75
f 52//330 91//330 49//330
f 69//331 91//331 52//331
f 69//332 72//332 91//332
f 66//113 71//122 67//114
f 61//104 69//333 52//334
f 2//318 65//318 4//318
f 61//104 52//334 53//98
f 34//40 30//335 31//41
f 22//107 14//336 5//6
f 6//4 5//6 14//336
